<?xml version="1.0" encoding="UTF-8" standalone="no"?>
<svg width="35px" height="43px" viewBox="0 0 35 43" version="1.1" xmlns="http://www.w3.org/2000/svg" xmlns:xlink="http://www.w3.org/1999/xlink">
    <!-- Generator: Sketch 39.1 (31720) - http://www.bohemiancoding.com/sketch -->
    <title>Shape</title>
    <desc>Created with Sketch.</desc>
    <defs></defs>
    <g id="Listing" stroke="none" stroke-width="1" fill="none" fill-rule="evenodd">
        <g id="Listing---Why-list-in-HK---FINAL" transform="translate(-249.000000, -2095.000000)" fill="#10416C">
            <g id="2-columns" transform="translate(219.000000, 299.000000)">
                <g id="advantages" transform="translate(1.000000, 1681.000000)">
                    <g id="Group-1" transform="translate(29.000000, 109.000000)">
                        <path d="M31.1111111,6 L3.88888889,6 C1.75,6 0.0194444444,7.75 0.0194444444,9.88888889 L0,35.0305556 C0,36.3722222 0.680555556,37.5583333 1.71111111,38.2583333 L17.5,48.7777778 L33.2694444,38.2583333 C34.3,37.5583333 34.9805556,36.3722222 34.9805556,35.0305556 L35,9.88888889 C35,7.75 33.25,6 31.1111111,6 L31.1111111,6 Z M13.6111111,35.1666667 L3.88888889,25.4444444 L6.63055556,22.7027778 L13.6111111,29.6638889 L28.3694444,14.9055556 L31.1111111,17.6666667 L13.6111111,35.1666667 L13.6111111,35.1666667 Z" id="Shape"></path>
                    </g>
                </g>
            </g>
        </g>
    </g>
</svg>