<?xml version="1.0" encoding="UTF-8" standalone="no"?>
<svg width="38px" height="38px" viewBox="0 0 38 38" version="1.1" xmlns="http://www.w3.org/2000/svg" xmlns:xlink="http://www.w3.org/1999/xlink">
    <!-- Generator: Sketch 39.1 (31720) - http://www.bohemiancoding.com/sketch -->
    <title>Shape</title>
    <desc>Created with Sketch.</desc>
    <defs></defs>
    <g id="Listing" stroke="none" stroke-width="1" fill="none" fill-rule="evenodd">
        <g id="Listing---Why-list-in-HK---FINAL" transform="translate(-753.000000, -2250.000000)" fill="#10416C">
            <g id="2-columns" transform="translate(219.000000, 299.000000)">
                <g id="advantages" transform="translate(1.000000, 1681.000000)">
                    <g id="Group-2-Copy" transform="translate(533.000000, 263.000000)">
                        <path d="M37.981,10.8 C37.981,8.71 36.29,7 34.2,7 L3.8,7 C1.71,7 0,8.71 0,10.8 L0,33.6 C0,35.69 1.71,37.4 3.8,37.4 L30.4,37.4 L38,45 L37.981,10.8 L37.981,10.8 Z M30.4,29.8 L7.6,29.8 L7.6,26 L30.4,26 L30.4,29.8 L30.4,29.8 Z M30.4,24.1 L7.6,24.1 L7.6,20.3 L30.4,20.3 L30.4,24.1 L30.4,24.1 Z M30.4,18.4 L7.6,18.4 L7.6,14.6 L30.4,14.6 L30.4,18.4 L30.4,18.4 Z" id="Shape"></path>
                    </g>
                </g>
            </g>
        </g>
    </g>
</svg>