<?xml version="1.0" encoding="UTF-8" standalone="no"?>
<svg width="38px" height="47px" viewBox="0 0 38 47" version="1.1" xmlns="http://www.w3.org/2000/svg" xmlns:xlink="http://www.w3.org/1999/xlink">
    <!-- Generator: Sketch 39.1 (31720) - http://www.bohemiancoding.com/sketch -->
    <title>Shape</title>
    <desc>Created with Sketch.</desc>
    <defs></defs>
    <g id="Listing" stroke="none" stroke-width="1" fill="none" fill-rule="evenodd">
        <g id="Listing---Why-list-in-HK---FINAL" transform="translate(-753.000000, -2094.000000)" fill="#10416C">
            <g id="2-columns" transform="translate(219.000000, 299.000000)">
                <g id="advantages" transform="translate(1.000000, 1681.000000)">
                    <g id="Group-2" transform="translate(533.000000, 109.000000)">
                        <path d="M19,5 C8.50777778,5 0,13.5077778 0,24 L0,38.7777778 C0,42.2822222 2.82888889,45.1111111 6.33333333,45.1111111 L12.6666667,45.1111111 L12.6666667,28.2222222 L4.22222222,28.2222222 L4.22222222,24 C4.22222222,15.83 10.83,9.22222222 19,9.22222222 C27.17,9.22222222 33.7777778,15.83 33.7777778,24 L33.7777778,28.2222222 L25.3333333,28.2222222 L25.3333333,45.1111111 L33.7777778,45.1111111 L33.7777778,47.2222222 L19,47.2222222 L19,51.4444444 L31.6666667,51.4444444 C35.1711111,51.4444444 38,48.6155556 38,45.1111111 L38,24 C38,13.5077778 29.4922222,5 19,5 L19,5 Z" id="Shape"></path>
                    </g>
                </g>
            </g>
        </g>
    </g>
</svg>