<?xml version="1.0" encoding="UTF-8" standalone="no"?>
<svg width="36px" height="40px" viewBox="0 0 36 40" version="1.1" xmlns="http://www.w3.org/2000/svg" xmlns:xlink="http://www.w3.org/1999/xlink">
    <!-- Generator: Sketch 39.1 (31720) - http://www.bohemiancoding.com/sketch -->
    <title>Shape</title>
    <desc>Created with Sketch.</desc>
    <defs></defs>
    <g id="Listing" stroke="none" stroke-width="1" fill="none" fill-rule="evenodd">
        <g id="Listing---Why-list-in-HK---FINAL" transform="translate(-248.000000, -2413.000000)" fill="#10416C">
            <g id="2-columns" transform="translate(219.000000, 299.000000)">
                <g id="advantages" transform="translate(1.000000, 1681.000000)">
                    <g id="Group-1-Copy-2" transform="translate(28.000000, 429.000000)">
                        <path d="M3.78947368,21.0246305 L3.78947368,34.2660099 L9.47368421,34.2660099 L9.47368421,21.0246305 L3.78947368,21.0246305 L3.78947368,21.0246305 Z M15.1578947,21.0246305 L15.1578947,34.2660099 L20.8421053,34.2660099 L20.8421053,21.0246305 L15.1578947,21.0246305 L15.1578947,21.0246305 Z M0,43.7241379 L36,43.7241379 L36,38.0492611 L0,38.0492611 L0,43.7241379 L0,43.7241379 Z M26.5263158,21.0246305 L26.5263158,34.2660099 L32.2105263,34.2660099 L32.2105263,21.0246305 L26.5263158,21.0246305 L26.5263158,21.0246305 Z M18,4 L0,13.4581281 L0,17.2413793 L36,17.2413793 L36,13.4581281 L18,4 L18,4 Z" id="Shape"></path>
                    </g>
                </g>
            </g>
        </g>
    </g>
</svg>