<?xml version="1.0" encoding="UTF-8" standalone="no"?>
<svg width="36px" height="47px" viewBox="0 0 36 47" version="1.1" xmlns="http://www.w3.org/2000/svg" xmlns:xlink="http://www.w3.org/1999/xlink">
    <!-- Generator: Sketch 39.1 (31720) - http://www.bohemiancoding.com/sketch -->
    <title>Shape</title>
    <desc>Created with Sketch.</desc>
    <defs></defs>
    <g id="Listing" stroke="none" stroke-width="1" fill="none" fill-rule="evenodd">
        <g id="Listing---Why-list-in-HK---FINAL" transform="translate(-250.000000, -2243.000000)" fill="#10416C">
            <g id="2-columns" transform="translate(219.000000, 299.000000)">
                <g id="advantages" transform="translate(1.000000, 1681.000000)">
                    <g id="Group-1-Copy" transform="translate(30.000000, 263.000000)">
                        <path d="M31.5,15.5 L29.25,15.5 L29.25,11.0714286 C29.25,4.96 24.21,0 18,0 C11.79,0 6.75,4.96 6.75,11.0714286 L6.75,15.5 L4.5,15.5 C2.025,15.5 0,17.4928571 0,19.9285714 L0,42.0714286 C0,44.5071429 2.025,46.5 4.5,46.5 L31.5,46.5 C33.975,46.5 36,44.5071429 36,42.0714286 L36,19.9285714 C36,17.4928571 33.975,15.5 31.5,15.5 L31.5,15.5 Z M18,35.4285714 C15.525,35.4285714 13.5,33.4357143 13.5,31 C13.5,28.5642857 15.525,26.5714286 18,26.5714286 C20.475,26.5714286 22.5,28.5642857 22.5,31 C22.5,33.4357143 20.475,35.4285714 18,35.4285714 L18,35.4285714 Z M24.975,15.5 L11.025,15.5 L11.025,11.0714286 C11.025,7.285 14.1525,4.20714286 18,4.20714286 C21.8475,4.20714286 24.975,7.285 24.975,11.0714286 L24.975,15.5 L24.975,15.5 Z" id="Shape"></path>
                    </g>
                </g>
            </g>
        </g>
    </g>
</svg>