<?xml version="1.0" encoding="UTF-8" standalone="no"?>
<svg width="38px" height="38px" viewBox="0 0 38 38" version="1.1" xmlns="http://www.w3.org/2000/svg" xmlns:xlink="http://www.w3.org/1999/xlink">
    <!-- Generator: Sketch 39.1 (31720) - http://www.bohemiancoding.com/sketch -->
    <title>Shape</title>
    <desc>Created with Sketch.</desc>
    <defs></defs>
    <g id="Listing" stroke="none" stroke-width="1" fill="none" fill-rule="evenodd">
        <g id="Listing---Why-list-in-HK---FINAL" transform="translate(-753.000000, -2412.000000)" fill="#10416C">
            <g id="2-columns" transform="translate(219.000000, 299.000000)">
                <g id="advantages" transform="translate(1.000000, 1681.000000)">
                    <g id="Group-2-Copy-2" transform="translate(533.000000, 429.000000)">
                        <path d="M19,12.5 C19,11.6291667 18.2875,10.9166667 17.4166667,10.9166667 L9.215,10.9166667 L10.26,5.88166667 L10.2916667,5.5175 C10.2916667,5.02666667 10.0858333,4.58333333 9.76916667,4.25083333 L8.51833333,3 L0.696666667,10.8216667 C0.269166667,11.2491667 0,11.8508333 0,12.5 L0,22.7916667 C0,24.1058333 1.06083333,25.1666667 2.375,25.1666667 L13.0625,25.1666667 C14.0441667,25.1666667 14.8833333,24.565 15.2475,23.7258333 L18.8258333,15.35 C18.9366667,15.0808333 19,14.78 19,14.4791667 L19,12.5 L19,12.5 Z M35.625,18.8333333 L24.9375,18.8333333 C23.9558333,18.8333333 23.1166667,19.435 22.7525,20.2741667 L19.1741667,28.65 C19.0633333,28.9191667 19,29.22 19,29.5208333 L19,31.5 C19,32.3708333 19.7125,33.0833333 20.5833333,33.0833333 L28.785,33.0833333 L27.74,38.1183333 L27.7083333,38.4983333 C27.7083333,38.9891667 27.9141667,39.4325 28.2308333,39.765 L29.4816667,41 L37.3033333,33.1783333 C37.7308333,32.7508333 38,32.1491667 38,31.5 L38,21.2083333 C38,19.8941667 36.9391667,18.8333333 35.625,18.8333333 L35.625,18.8333333 Z" id="Shape"></path>
                    </g>
                </g>
            </g>
        </g>
    </g>
</svg>