<?xml version="1.0" encoding="UTF-8"?>
<svg width="10px" height="10px" viewBox="0 0 10 10" version="1.1" xmlns="http://www.w3.org/2000/svg" xmlns:xlink="http://www.w3.org/1999/xlink">
    <!-- Generator: sketchtool 41 (35326) - http://www.bohemiancoding.com/sketch -->
    <title>DC99A230-72B0-416E-AF38-FD9450B2E759</title>
    <desc>Created with sketchtool.</desc>
    <defs></defs>
    <g id="Calendar" stroke="none" stroke-width="1" fill="none" fill-rule="evenodd">
        <g id="Calendar-Landing---all-events" transform="translate(-386.000000, -1664.000000)" fill="#FFFFFF">
            <g id="Group-6" transform="translate(380.000000, 1006.000000)">
                <g id="Group-4">
                    <g id="Group-13" transform="translate(0.000000, 366.000000)">
                        <g id="Group-8" transform="translate(0.000000, 279.000000)">
                            <path d="M13.9985,17.977 C13.994,18.25 13.7725,18.5 13.499,18.5 L11.4475,18.5 C10.924,18.5 10.5,18.0135 10.5,17.4895 L10.5,15.438 C10.5,15.162 10.7235,14.938 10.9995,14.938 C11.276,14.938 11.5,15.162 11.5,15.438 L11.5,16.938 C11.5,17.2145 11.723,17.5 11.999,17.5 L13.499,17.5 C13.7725,17.5 13.994,17.705 13.9985,17.977 L13.9985,17.977 Z M13.9985,17.977 C13.9985,17.9745 14,17.972 14,17.969 L14,17.9845 C14,17.982 13.9985,17.9795 13.9985,17.977 L13.9985,17.977 Z M10.9995,14.938 L10.9995,14.938 L11,14.938 L10.9995,14.938 Z M15,21.5 C15,21.776 14.776,22 14.5,22 L7.5,22 C7.224,22 7,21.776 7,21.5 L7,14.5 C7,14.224 7.224,14 7.5,14 L14.5,14 C14.776,14 15,14.224 15,14.5 L15,21.5 Z M15,13 L7,13 C6.448,13 6,13.448 6,14 L6,22 C6,22.5525 6.448,23 7,23 L15,23 C15.5525,23 16,22.5525 16,22 L16,14 C16,13.448 15.5525,13 15,13 L15,13 Z" id="clock-[#1318]"></path>
                        </g>
                    </g>
                </g>
            </g>
        </g>
    </g>
</svg>