<?xml version="1.0" encoding="UTF-8"?>
<svg width="10px" height="13px" viewBox="0 0 10 13" version="1.1" xmlns="http://www.w3.org/2000/svg" xmlns:xlink="http://www.w3.org/1999/xlink">
    <!-- Generator: sketchtool 41 (35326) - http://www.bohemiancoding.com/sketch -->
    <title>36F2B32F-242B-4703-BCD9-D54CF13CF173</title>
    <desc>Created with sketchtool.</desc>
    <defs></defs>
    <g id="Calendar" stroke="none" stroke-width="1" fill="none" fill-rule="evenodd">
        <g id="Calendar-Landing---all-events" transform="translate(-386.000000, -1588.000000)" fill="#FFFFFF">
            <g id="Group-6" transform="translate(380.000000, 1006.000000)">
                <g id="Group-4">
                    <g id="Group-13" transform="translate(0.000000, 366.000000)">
                        <g id="Group-7" transform="translate(0.000000, 204.000000)">
                            <path d="M13.5,20.75 L8.5,20.75 L8.5,17 C8.5,15.33375 9.75,14.5 10.999375,14.5 L11.000625,14.5 C12.25,14.5 13.5,15.33375 13.5,17 L13.5,20.75 Z M11.625,22.625 C11.625,22.97 11.345,23.25 11,23.25 C10.655,23.25 10.375,22.97 10.375,22.625 L10.375,22 L11.625,22 L11.625,22.625 Z M15.375,20.75 C15.03,20.75 14.75,20.47 14.75,20.125 L14.75,17 C14.75,14.779375 13.27,13.546875 11.625,13.299375 L11.625,12.625 C11.625,12.28 11.345,12 11,12 C10.655,12 10.375,12.28 10.375,12.625 L10.375,13.299375 C8.73,13.546875 7.25,14.779375 7.25,17 L7.25,20.125 C7.25,20.47 6.97,20.75 6.625,20.75 C6.28,20.75 6,21.03 6,21.375 C6,21.72 6.28,22 6.625,22 L9.125,22 L9.125,22.625 C9.125,23.660625 9.964375,24.5 11,24.5 C12.035625,24.5 12.875,23.660625 12.875,22.625 L12.875,22 L15.375,22 C15.72,22 16,21.72 16,21.375 C16,21.03 15.72,20.75 15.375,20.75 L15.375,20.75 Z" id="notification_bell-[#1397]"></path>
                        </g>
                    </g>
                </g>
            </g>
        </g>
    </g>
</svg>