<?xml version="1.0" encoding="UTF-8"?>
<svg width="12px" height="12px" viewBox="0 0 12 12" version="1.1" xmlns="http://www.w3.org/2000/svg" xmlns:xlink="http://www.w3.org/1999/xlink">
    <!-- Generator: sketchtool 41 (35326) - http://www.bohemiancoding.com/sketch -->
    <title>9209A269-37BB-4ECA-A34F-E8BBFE411D92</title>
    <desc>Created with sketchtool.</desc>
    <defs></defs>
    <g id="Calendar" stroke="none" stroke-width="1" fill="none" fill-rule="evenodd">
        <g id="Calendar-Landing---all-events" transform="translate(-766.000000, -276.000000)" fill="#FFFFFF">
            <g id="Group-4" transform="translate(760.000000, 264.000000)">
                <g id="Group-9">
                    <path d="M16.8,17.4 L14.4708,17.4 L13.2672,18.609 C12.5736,17.4264 11.4006,15.426 11.277,15.216 L10.4286,16.065 L10.4334,16.068 L9.096,17.4 L7.2,17.4 L7.2,13.2 L16.8,13.2 L16.8,17.4 L16.8,17.4 Z M16.8,22.8 L7.2,22.8 L7.2,18.6 L9.594,18.6 L11.0604,17.1384 C12.6942,19.9308 12.2622,19.191 13.0386,20.5242 L14.9664,18.6 L16.8,18.6 L16.8,22.8 L16.8,22.8 Z M6,24 L18,24 L18,12 L6,12 L6,24 L6,24 Z" id="stats-[#1190]"></path>
                </g>
            </g>
        </g>
    </g>
</svg>