<?xml version="1.0" encoding="utf-8"?>
<!-- Generator: Adobe Illustrator 19.2.0, SVG Export Plug-In . SVG Version: 6.00 Build 0)  -->
<svg version="1.1" id="Layer_1" xmlns="http://www.w3.org/2000/svg" xmlns:xlink="http://www.w3.org/1999/xlink" x="0px" y="0px"
	 viewBox="0 0 28 26.1" style="enable-background:new 0 0 28 26.1;" xml:space="preserve">
<style type="text/css">
	.st0{enable-background:new    ;}
	.st1{fill:#10416C;}
</style>
<title>ï±</title>
<desc>Created with Sketch.</desc>
<g id="Module:-Ticker_x2A_">
	<g id="Ticker" transform="translate(-347.000000, -722.000000)">
		<g id="Group-4" transform="translate(68.000000, 692.000000)">
			<g class="st0">
				<path class="st1" d="M294.7,31.1l12,22c0.4,0.7,0.4,1.3,0,2c-0.2,0.3-0.4,0.5-0.7,0.7c-0.3,0.2-0.6,0.3-1,0.3h-24
					c-0.4,0-0.7-0.1-1-0.3s-0.5-0.4-0.7-0.7c-0.4-0.7-0.4-1.3,0-2l12-22c0.2-0.3,0.4-0.6,0.7-0.8s0.7-0.3,1-0.3c0.4,0,0.7,0.1,1,0.3
					S294.5,30.8,294.7,31.1z M294.9,45.7l0.3-7.2c0-0.1-0.1-0.2-0.2-0.3s-0.3-0.2-0.4-0.2h-3.4c-0.1,0-0.2,0.1-0.4,0.2
					c-0.1,0.1-0.2,0.2-0.2,0.3l0.3,7.1c0,0.1,0.1,0.2,0.2,0.3s0.2,0.1,0.4,0.1h2.9c0.1,0,0.3,0,0.4-0.1
					C294.8,45.9,294.9,45.8,294.9,45.7z M294.9,51.6v-3c0-0.1,0-0.3-0.1-0.4c-0.1-0.1-0.2-0.1-0.4-0.1h-3c-0.1,0-0.3,0-0.4,0.1
					s-0.1,0.2-0.1,0.4v3c0,0.1,0,0.3,0.1,0.4c0.1,0.1,0.2,0.1,0.4,0.1h3c0.1,0,0.3,0,0.4-0.1C294.9,51.9,294.9,51.7,294.9,51.6z"/>
			</g>
		</g>
	</g>
</g>
</svg>
