<?xml version="1.0" encoding="utf-8"?>
<!-- Generator: Adobe Illustrator 19.2.0, SVG Export Plug-In . SVG Version: 6.00 Build 0)  -->
<svg version="1.1" id="Layer_1" xmlns="http://www.w3.org/2000/svg" xmlns:xlink="http://www.w3.org/1999/xlink" x="0px" y="0px"
	 viewBox="0 0 30 30" style="enable-background:new 0 0 30 30;" xml:space="preserve">
<style type="text/css">
	.st0{enable-background:new    ;}
	.st1{fill:#10416C;}
</style>
<title>ïª</title>
<desc>Created with Sketch.</desc>
<g id="Module:-Ticker_x2A_">
	<g id="Ticker" transform="translate(-349.000000, -158.000000)">
		<g id="Group-6" transform="translate(68.000000, 130.000000)">
			<g class="st0">
				<path class="st1" d="M289.1,30.2c2.2-1.3,4.7-2,7.3-2s5.1,0.7,7.3,2c2.2,1.3,4,3.1,5.3,5.3s2,4.7,2,7.3c0,2.6-0.7,5.1-2,7.3
					c-1.3,2.2-3.1,4-5.3,5.3s-4.7,2-7.3,2s-5.1-0.7-7.3-2c-2.2-1.3-4-3.1-5.3-5.3c-1.3-2.2-2-4.7-2-7.3c0-2.6,0.7-5.1,2-7.3
					S286.9,31.5,289.1,30.2z M298.8,45.4l0.3-11.8c0-0.2-0.1-0.3-0.2-0.3c-0.1-0.1-0.3-0.2-0.5-0.2h-4.2c-0.2,0-0.3,0.1-0.5,0.2
					c-0.1,0.1-0.2,0.2-0.2,0.3l0.3,11.8c0,0.1,0.1,0.2,0.2,0.3c0.1,0.1,0.3,0.1,0.5,0.1h3.5c0.2,0,0.3,0,0.4-0.1
					C298.7,45.7,298.8,45.5,298.8,45.4z M298.9,51.9v-3.6c0-0.2-0.1-0.3-0.2-0.4c-0.1-0.1-0.3-0.2-0.4-0.2h-3.6
					c-0.2,0-0.3,0.1-0.4,0.2c-0.1,0.1-0.2,0.3-0.2,0.4v3.6c0,0.2,0.1,0.3,0.2,0.4c0.1,0.1,0.3,0.2,0.4,0.2h3.6
					c0.2,0,0.3-0.1,0.4-0.2C298.8,52.3,298.9,52.1,298.9,51.9z"/>
			</g>
		</g>
	</g>
</g>
</svg>
