<?xml version="1.0" encoding="utf-8"?>
<!-- Generator: Adobe Illustrator 19.2.0, SVG Export Plug-In . SVG Version: 6.00 Build 0)  -->
<svg version="1.1" id="Layer_1" xmlns="http://www.w3.org/2000/svg" xmlns:xlink="http://www.w3.org/1999/xlink" x="0px" y="0px"
	 viewBox="0 0 30 30" style="enable-background:new 0 0 30 30;" xml:space="preserve">
<style type="text/css">
	.st0{enable-background:new    ;}
	.st1{fill:#10416C;}
</style>
<title>ïš</title>
<desc>Created with Sketch.</desc>
<g id="Module:-Ticker_x2A_">
	<g id="Ticker" transform="translate(-350.000000, -453.000000)">
		<g id="Group-8" transform="translate(68.000000, 424.000000)">
			<g id="Group-7">
				<g class="st0">
					<path class="st1" d="M310,36.5c1.3,2.3,2,4.8,2,7.5s-0.7,5.2-2,7.5s-3.2,4.1-5.5,5.5s-4.8,2-7.5,2s-5.2-0.7-7.5-2
						s-4.1-3.2-5.5-5.5c-1.3-2.3-2-4.8-2-7.5s0.7-5.2,2-7.5s3.2-4.1,5.5-5.5c2.3-1.3,4.8-2,7.5-2s5.2,0.7,7.5,2
						C306.8,32.4,308.6,34.2,310,36.5z M302,53.4v-3.1c0-0.2-0.1-0.3-0.2-0.4s-0.3-0.2-0.4-0.2h-1.9v-10c0-0.2-0.1-0.3-0.2-0.4
						s-0.3-0.2-0.4-0.2h-6.2c-0.2,0-0.3,0.1-0.4,0.2s-0.2,0.3-0.2,0.4v3.1c0,0.2,0.1,0.3,0.2,0.4s0.3,0.2,0.4,0.2h1.9v6.2h-1.9
						c-0.2,0-0.3,0.1-0.4,0.2s-0.2,0.3-0.2,0.4v3.1c0,0.2,0.1,0.3,0.2,0.4s0.3,0.2,0.4,0.2h8.8c0.2,0,0.3-0.1,0.4-0.2
						S302,53.6,302,53.4z M299.5,35.9v-3.1c0-0.2-0.1-0.3-0.2-0.4s-0.3-0.2-0.4-0.2h-3.8c-0.2,0-0.3,0.1-0.4,0.2s-0.2,0.3-0.2,0.4
						v3.1c0,0.2,0.1,0.3,0.2,0.4s0.3,0.2,0.4,0.2h3.8c0.2,0,0.3-0.1,0.4-0.2S299.5,36.1,299.5,35.9z"/>
				</g>
			</g>
		</g>
	</g>
</g>
</svg>
