<?xml version="1.0" encoding="UTF-8" standalone="no"?>
<svg width="11px" height="10px" viewBox="0 0 11 10" version="1.1" xmlns="http://www.w3.org/2000/svg" xmlns:xlink="http://www.w3.org/1999/xlink">
    <!-- Generator: Sketch 40.1 (33804) - http://www.bohemiancoding.com/sketch -->
    <title>icon/expand</title>
    <desc>Created with Sketch.</desc>
    <defs></defs>
    <g id="Listing" stroke="none" stroke-width="1" fill="none" fill-rule="evenodd">
        <g id="Listing-/-GETTING-STARTED--CLOSED" transform="translate(-1048.000000, -602.000000)" fill="#E72742">
            <g id="Group" transform="translate(1048.000000, 598.000000)">
                <g id="icon/expand" transform="translate(5.500000, 9.000000) scale(1, -1) translate(-5.500000, -9.000000) translate(0.000000, 4.000000)">
                    <g id="Group">
                        <path d="M9.88769681,0.110254502 L5.33335651,3.90711833 L0.779016202,0.110254502 C0.577387904,-0.0574480947 0.27813062,-0.0300408683 0.110279876,0.170994842 C-0.0578671619,0.372178699 -0.0306080826,0.671880424 0.170723922,0.839731168 L5.02921037,4.88977851 C5.11720979,4.9632595 5.22535722,5 5.33335651,5 C5.44150394,5 5.54950323,4.9632595 5.63750265,4.88977851 L10.4959891,0.839731168 C10.6973211,0.671880424 10.7245802,0.372326846 10.5564331,0.170994842 C10.3879898,-0.0306334569 10.0897696,-0.0578925363 9.88769681,0.110254502 Z M9.88769681,5.1102545 L5.33335651,8.90711833 L0.779016202,5.1102545 C0.577387904,4.94255191 0.27813062,4.96995913 0.110279876,5.17099484 C-0.0578671619,5.3721787 -0.0306080826,5.67188042 0.170723922,5.83973117 L5.02921037,9.88977851 C5.11720979,9.9632595 5.22535722,10 5.33335651,10 C5.44150394,10 5.54950323,9.9632595 5.63750265,9.88977851 L10.4959891,5.83973117 C10.6973211,5.67188042 10.7245802,5.37232685 10.5564331,5.17099484 C10.3879898,4.96936654 10.0897696,4.94210746 9.88769681,5.1102545 Z" id="Combined-Shape"></path>
                    </g>
                </g>
            </g>
        </g>
    </g>
</svg>