<?xml version="1.0" encoding="UTF-8" standalone="no"?>
<svg width="19px" height="18px" viewBox="0 0 19 18" version="1.1" xmlns="http://www.w3.org/2000/svg" xmlns:xlink="http://www.w3.org/1999/xlink">
    <!-- Generator: sketchtool 39.1 (31720) - http://www.bohemiancoding.com/sketch -->
    <title>F658C905-A2A4-424F-B888-391821F45FCC</title>
    <desc>Created with sketchtool.</desc>
    <defs></defs>
    <g id="Home" stroke="none" stroke-width="1" fill="none" fill-rule="evenodd">
        <g id="Search---Tablet" transform="translate(-730.000000, -20.000000)" fill="#10416C">
            <g id="Group">
                <path d="M738.654049,29 L730.802977,21.1008645 C730.569379,20.865836 730.570538,20.4859388 730.805567,20.2523403 C731.040595,20.0187419 731.420493,20.0199012 731.654091,20.2549297 L739.5,28.1488706 L747.345909,20.2549297 C747.579507,20.0199012 747.959405,20.0187419 748.194433,20.2523403 C748.429462,20.4859388 748.430621,20.865836 748.197023,21.1008645 L740.345951,29 L748.197023,36.8991355 C748.430621,37.134164 748.429462,37.5140612 748.194433,37.7476597 C747.959405,37.9812581 747.579507,37.9800988 747.345909,37.7450703 L739.5,29.8511294 L731.654091,37.7450703 C731.420493,37.9800988 731.040595,37.9812581 730.805567,37.7476597 C730.570538,37.5140612 730.569379,37.134164 730.802977,36.8991355 L738.654049,29 Z" id="Combined-Shape"></path>
            </g>
        </g>
    </g>
</svg>