<?xml version="1.0" encoding="UTF-8"?>
<svg width="12px" height="14px" viewBox="0 0 12 14" version="1.1" xmlns="http://www.w3.org/2000/svg" xmlns:xlink="http://www.w3.org/1999/xlink">
    <!-- Generator: sketchtool 41.2 (35397) - http://www.bohemiancoding.com/sketch -->
    <title>EB140842-B8C1-4C2D-AEB6-EFA75825886D</title>
    <desc>Created with sketchtool.</desc>
    <defs></defs>
    <g id="Symbols" stroke="none" stroke-width="1" fill="none" fill-rule="evenodd">
        <g id="Hdr-Nav" transform="translate(-1207.000000, -33.000000)" fill="#A5A5A5">
            <g id="Sub-Nav">
                <g transform="translate(563.000000, 22.000000)">
                    <g id="ic_notifications" transform="translate(642.000000, 10.000000)">
                        <path d="M7.66666667,14.6666667 C8.4,14.6666667 9,14.0666667 9,13.3333333 L6.33333333,13.3333333 C6.33333333,14.0666667 6.93333333,14.6666667 7.66666667,14.6666667 L7.66666667,14.6666667 Z M12,10.6666667 L12,7 C12,4.95333333 10.58,3.24 8.66666667,2.78666667 L8.66666667,2.33333333 C8.66666667,1.78 8.22,1.33333333 7.66666667,1.33333333 C7.11333333,1.33333333 6.66666667,1.78 6.66666667,2.33333333 L6.66666667,2.78666667 C4.75333333,3.24 3.33333333,4.95333333 3.33333333,7 L3.33333333,10.6666667 L2,12 L2,12.6666667 L13.3333333,12.6666667 L13.3333333,12 L12,10.6666667 L12,10.6666667 Z" id="Shape"></path>
                    </g>
                </g>
            </g>
        </g>
    </g>
</svg>