<?xml version="1.0" encoding="UTF-8" standalone="no"?>
<svg width="22px" height="19px" viewBox="0 0 22 19" version="1.1" xmlns="http://www.w3.org/2000/svg" xmlns:xlink="http://www.w3.org/1999/xlink">
    <!-- Generator: sketchtool 39.1 (31720) - http://www.bohemiancoding.com/sketch -->
    <title>B1B6C6C1-5467-44E1-8BB2-6BE82D4D7489</title>
    <desc>Created with sketchtool.</desc>
    <defs></defs>
    <g id="Symbols" stroke="none" stroke-width="1" fill="none" fill-rule="evenodd">
        <g id="FOOTER" transform="translate(-933.000000, -61.000000)" fill="#FFFFFF">
            <g id="Group-20">
                <g transform="translate(933.000000, 60.000000)">
                    <g id="Group-18" transform="translate(0.000000, 1.000000)">
                        <path d="M1.36692798,6.15857756 L5.42001662,6.15857756 L5.42001662,19.0010623 L1.36692798,19.0010623 L1.36692798,6.15857756 Z M16.4941371,6.03512465 C14.1722078,6.03512465 12.7172673,7.29276593 12.4483767,8.17384765 L12.4483767,6.15857756 L7.89527562,6.15857756 C7.95390166,7.22850277 7.89527562,19.0010623 7.89527562,19.0010623 L12.4483767,19.0010623 L12.4483767,12.0516219 C12.4483767,11.6649155 12.430338,11.2787729 12.54759,11.0019903 C12.8604501,10.229705 13.5329584,9.42810665 14.7421205,9.42810665 C16.3233324,9.42810665 17.0420651,10.6158476 17.0420651,12.3548989 L17.0420651,19.0010623 L21.6380083,19.0010623 L21.6380083,11.8599598 C21.6380083,7.88240859 19.374705,6.03512465 16.4941371,6.03512465 Z M3.31849861,0.0958559557 C1.82184349,0.0958559557 0.8426759,1.05698476 0.8426759,2.32590028 C0.8426759,3.57057618 1.79422161,4.55199861 3.261,4.55199861 L3.29031302,4.55199861 C4.81402632,4.55199861 5.76275346,3.56663019 5.76275346,2.32251801 C5.73344044,1.05472992 4.81402632,0.0958559557 3.31849861,0.0958559557 Z" id="Linkedin"></path>
                    </g>
                </g>
            </g>
        </g>
    </g>
</svg>