<?xml version="1.0" encoding="UTF-8" standalone="no"?>
<svg width="45px" height="21px" viewBox="0 0 45 21" version="1.1" xmlns="http://www.w3.org/2000/svg" xmlns:xlink="http://www.w3.org/1999/xlink">
    <!-- Generator: sketchtool 39.1 (31720) - http://www.bohemiancoding.com/sketch -->
    <title>8B884559-8168-40B7-9A78-A3EC830CCA06</title>
    <desc>Created with sketchtool.</desc>
    <defs>
        <polygon id="path-1" points="0 48.9199156 105.641583 48.9199156 105.641583 0.00030625 0 0.00030625"></polygon>
    </defs>
    <g id="Home" stroke="none" stroke-width="1" fill="none" fill-rule="evenodd">
        <g id="Homepage-sticky-menu-search" transform="translate(-220.000000, -10.000000)">
            <g id="Hdr-Nav">
                <g id="logo-reversed" transform="translate(220.000000, 10.000000)">
                    <g id="Group-5">
                        <polygon id="Clip-2" points="102.113575 48.9199156 105.641583 48.9199156 105.641583 34.7604469 98.5855669 34.7604469 98.5855669 48.9199156"></polygon>
                        <path d="M105.641812,36.2886344 L105.641812,34.7604469 L101.258445,34.7604469 C100.420358,34.7604469 99.7416532,35.4395562 99.7370777,36.2794469 L99.7355525,36.2886344 L99.7370777,36.2878687 L99.7370777,46.8236344 C99.7370777,47.2454937 99.6196388,47.3917281 99.213941,47.3917281 L98.5855669,47.3917281 L98.5855669,48.9199156 L99.6204014,48.9199156 C101.25997,48.9199156 101.25997,47.565525 101.25997,47.0556187 L101.259207,47.0563844 L101.259207,47.0556187 L101.259207,39.835775 L103.402085,39.835775 L103.402085,48.8984781 L104.924214,48.8984781 L104.924214,39.835775 L105.641812,39.835775 L105.641812,38.3075875 L101.259207,38.3075875 L101.259207,36.9792281 C101.259207,36.5435875 101.487984,36.2886344 101.866991,36.2886344 L105.641812,36.2886344 Z" id="Fill-1" fill="#FFFFFF"></path>
                        <mask id="mask-2" fill="white">
                            <use xlink:href="#path-1"></use>
                        </mask>
                        <g id="Clip-5"></g>
                        <path d="M94.293482,42.1793531 L96.9633094,42.1793531 L96.9633094,39.8365406 L94.293482,39.8365406 L94.293482,42.1793531 Z M94.9020288,36.2886344 L98.6760863,36.2886344 L98.6760863,34.7604469 L94.2927194,34.7604469 C93.4553957,34.7604469 92.7766906,35.4395563 92.7713525,36.2794469 L92.7705899,36.2886344 L92.7713525,36.2878688 L92.7713525,46.8244 C92.7713525,47.2454938 92.6546763,47.3917281 92.2482158,47.3917281 L91.6198417,47.3917281 L91.6198417,48.9199156 L92.6546763,48.9199156 C94.2942446,48.9199156 94.2942446,47.565525 94.2942446,47.0556188 L94.293482,47.0563844 L94.293482,47.0556188 L94.293482,43.7075406 L98.4770504,43.7075406 L98.4770504,38.3075875 L94.293482,38.3075875 L94.293482,36.9792281 C94.293482,36.5435875 94.5230216,36.2886344 94.9020288,36.2886344 L94.9020288,36.2886344 Z" id="Fill-4" fill="#FFFFFF" mask="url(#mask-2)"></path>
                        <polygon id="Fill-6" fill="#FFFFFF" mask="url(#mask-2)" points="54.9597799 35.9613297 54.0980532 34.2907359 52.5812619 34.2907359 53.4399381 35.9613297 47.108154 35.9613297 47.108154 37.4826266 61.3197799 37.4826266 61.3197799 35.9613297"></polygon>
                        <path d="M59.5452331,41.9050297 L61.3197799,41.9050297 L61.3197799,40.4158891 L60.1492043,40.4158891 C59.7732475,40.4158891 59.4239813,40.2367328 58.5264129,39.3363578 L57.5655496,38.3509984 L55.478341,38.3509984 L57.3055065,40.2007484 L54.2139669,42.9141234 L51.1224273,40.2007484 L52.9495928,38.3509984 L50.8616216,38.3509984 L49.9007583,39.3363578 C49.0039525,40.2367328 48.6546863,40.4158891 48.2779669,40.4158891 L47.1073914,40.4158891 L47.1073914,41.9050297 L48.8819381,41.9050297 C49.1709597,41.9050297 49.4454921,41.7970766 49.9602403,41.3422953 L52.9915353,43.9867641 L49.8252619,46.7659828 C49.3326288,47.1909047 48.9261683,47.3907328 47.9515784,47.3907328 L47.108154,47.3907328 L47.108154,48.9196859 C47.0822259,48.9196859 48.4556504,48.9189203 48.4556504,48.9189203 C49.4813338,48.9189203 49.7444273,48.8875297 50.5192187,48.2742641 L54.2139669,45.0525141 L57.9079525,48.2742641 C58.6827439,48.8875297 58.9458374,48.9189203 59.9722835,48.9189203 C59.9722835,48.9189203 61.3457079,48.9196859 61.3197799,48.9196859 L61.3197799,47.3907328 L60.4755928,47.3907328 C59.5010029,47.3907328 59.0945424,47.1909047 58.6026719,46.7659828 L55.435636,43.9867641 L58.4669309,41.3422953 C58.9824417,41.7970766 59.2569741,41.9050297 59.5452331,41.9050297" id="Fill-7" fill="#FFFFFF" mask="url(#mask-2)"></path>
                        <polygon id="Fill-8" fill="#FFFFFF" mask="url(#mask-2)" points="75.5731194 5.16199688 75.5731194 0.0147 62.4397957 0.0147 60.6286446 0.0147 57.3090906 0.0147 57.3090906 25.9609656 60.6286446 25.9609656 60.6286446 25.9609656 75.5731194 25.9609656 75.5731194 20.8060125 62.4397957 20.8060125 62.4397957 15.5224344 74.9233928 15.5224344 74.9233928 10.3697781 62.4397957 10.3697781 62.4397957 5.16199688"></polygon>
                        <polygon id="Fill-9" fill="#FFFFFF" mask="url(#mask-2)" points="17.6502201 0.014546875 17.6502201 10.4125 5.13001871 10.4125 5.13001871 0.014546875 7.62589925e-05 0.014546875 7.62589925e-05 25.9608125 5.13001871 25.9608125 5.13001871 15.5628594 17.6502201 15.5628594 17.6502201 25.9608125 22.7809252 25.9608125 22.7809252 0.014546875"></polygon>
                        <path d="M52.7784676,25.9579031 L43.2094892,11.5335281 C43.631964,11.1652625 44.2267842,10.6461687 44.5737626,10.3337937 C49.0966835,6.25454375 49.5473741,1.50077812 49.571777,0.0238875 L44.6179928,0.0238875 C44.602741,0.7252 44.4357338,3.87880937 41.3159784,6.69248125 C39.8464676,8.01777812 37.4465971,10.0374969 35.5149568,11.6445437 L35.5149568,0.107340625 L30.402554,0.107340625 L30.402554,25.9609656 L35.5149568,25.9609656 L35.5149568,17.918075 L35.546223,17.9563562 C35.6804388,17.8468719 37.4397338,16.4067312 39.4796619,14.7016844 L46.8470432,25.9579031 L52.7784676,25.9579031 Z" id="Fill-10" fill="#FFFFFF" mask="url(#mask-2)"></path>
                        <path d="M82.7027252,-7.65625e-05 L82.7027252,5.14645469 C86.9976317,5.15640781 90.4765669,8.65454844 90.4765669,12.9688453 C90.4765669,17.2823766 86.9976317,20.7805172 82.7027252,20.7904703 L82.7027252,25.9316422 C89.8352288,25.9316422 95.6171856,20.1266734 95.6171856,12.9657828 C95.6171856,5.80489219 89.8352288,-7.65625e-05 82.7027252,-7.65625e-05" id="Fill-11" fill="#F4364C" mask="url(#mask-2)"></path>
                        <path d="M105.641812,-7.65625e-05 L105.641812,5.14645469 C101.346905,5.15640781 97.8679698,8.65454844 97.8679698,12.9688453 C97.8679698,17.2823766 101.346905,20.7805172 105.641812,20.7904703 L105.641812,25.9316422 C98.5093079,25.9316422 92.7273511,20.1266734 92.7273511,12.9657828 C92.7273511,5.80489219 98.5093079,-7.65625e-05 105.641812,-7.65625e-05" id="Fill-12" fill="#FFFFFF" mask="url(#mask-2)"></path>
                        <path d="M72.444518,40.0164625 L81.9692662,40.0164625 L81.9692662,38.8121344 L72.444518,38.8121344 L72.444518,40.0164625 Z M72.444518,36.2901656 L81.238705,36.2901656 C81.7763309,36.2901656 81.9692662,36.5520094 81.9692662,36.9294625 L81.9692662,37.4998531 L72.444518,37.4998531 L72.444518,36.2901656 Z M83.4845324,41.5071344 L83.4845324,36.6255094 C83.4845324,36.1156031 83.4334388,34.7612125 81.7938705,34.7612125 L70.9292518,34.7612125 L70.9292518,41.5071344 L73.1842302,41.5071344 C73.1346619,41.5928844 72.4292662,42.7834313 72.3781727,42.8599938 C71.9587482,43.4878063 71.8588489,43.6363375 71.0970216,43.6363375 L69.7807914,43.6363375 L69.7807914,45.1568688 L71.0970216,45.1568688 C72.2416691,45.1568688 72.8036978,44.784775 73.2681151,44.2136188 L74.1733094,44.2136188 C73.9445324,44.6469625 72.8464029,46.5449469 72.7953094,46.6215094 C72.3751223,47.2485563 72.275223,47.3978531 71.5133957,47.3978531 L70.1971655,47.3978531 L70.1971655,48.9176188 L71.5133957,48.9176188 C72.9691799,48.9176188 73.4839281,48.3173688 74.0520576,47.4690563 C74.1389928,47.3389 75.853295,44.2733375 75.8853237,44.2136188 L78.715295,44.2136188 C78.486518,44.6469625 77.3883885,46.5449469 77.337295,46.6215094 C76.9171079,47.2485563 76.8172086,47.3978531 76.0561439,47.3978531 L74.7391511,47.3978531 L74.7391511,48.9176188 L76.0561439,48.9176188 C77.5119281,48.9176188 78.0259137,48.3173688 78.5940432,47.4690563 C78.6809784,47.3389 80.3952806,44.2748688 80.4273094,44.2136188 L81.9616403,44.2136188 L81.9616403,46.64065 C81.9616403,47.1436656 81.7374388,47.3963219 81.196,47.3963219 L80.0612662,47.3963219 L80.0612662,48.9199156 L81.844964,48.9199156 C83.4845324,48.9199156 83.4845324,47.565525 83.4845324,47.0556188 L83.4845324,42.6884938 L74.2488058,42.6884938 C74.4142878,42.40215 74.7574532,41.8057281 74.9236978,41.5071344 L83.4845324,41.5071344 Z" id="Fill-13" fill="#FFFFFF" mask="url(#mask-2)"></path>
                        <path d="M26.2423971,47.0558484 L26.2423971,42.8594578 L24.7202676,42.8594578 L24.7202676,46.9670359 C24.7202676,47.3031453 24.5044547,47.3911922 24.2001813,47.3911922 L23.5687568,47.3911922 L23.5687568,48.9201453 L24.6035914,48.9201453 C26.2431597,48.9201453 26.2431597,47.5657547 26.2431597,47.0558484 L26.2423971,47.0558484 L26.2423971,47.0558484 Z" id="Fill-14" fill="#FFFFFF" mask="url(#mask-2)"></path>
                        <polygon id="Fill-15" fill="#FFFFFF" mask="url(#mask-2)" points="23.709836 38.5366625 24.5715626 40.8511469 24.7263683 41.2684125 26.2454475 41.2684125 25.2266273 38.5366625"></polygon>
                        <polygon id="Fill-16" fill="#FFFFFF" mask="url(#mask-2)" points="23.709836 34.9403687 24.5715626 37.2548531 24.7263683 37.6721187 26.2454475 37.6721187 25.2266273 34.9403687"></polygon>
                        <path d="M31.4273986,40.1692812 L33.2873554,40.1639219 C33.4314849,40.3201094 34.682895,41.6745 34.8270245,41.8146094 L29.8869669,41.8146094 C30.0310964,41.6745 31.2832691,40.3247031 31.4273986,40.1692812 L31.4273986,40.1692812 Z M30.6571827,37.4827031 L33.9950388,37.4827031 L33.9950388,38.6403281 L30.6617583,38.6403281 L30.6571827,38.6403281 L30.6571827,37.4827031 Z M34.5212259,43.9575937 C34.5212259,44.338875 34.3237151,44.5180312 33.9584345,44.5180312 L29.9899165,44.5180312 L29.9899165,43.3305469 L34.5212259,43.3305469 L34.5212259,43.9575937 Z M34.1872115,46.0469844 C34.6173122,46.0469844 35.6483338,46.0431562 35.9541324,45.0417187 C35.9556576,45.0355937 35.9579453,45.0294687 35.9594705,45.0233437 C35.9724345,44.9789375 35.984636,44.9322344 35.9945496,44.884 C36.0067511,44.8319375 36.0151396,44.7768125 36.0227655,44.7201562 C36.0250532,44.706375 36.027341,44.6933594 36.0288662,44.6795781 C36.040305,44.583875 36.0479309,44.4835781 36.0479309,44.3733281 L36.0479309,42.6904844 C36.3384777,42.8068594 36.6320748,42.8589219 36.9584633,42.8589219 L37.9810964,42.8589219 L37.9810964,41.2687187 C37.9810964,41.2687187 36.8982187,41.2687187 36.8661899,41.2664219 C36.6458014,41.2541719 36.3644058,41.1561719 35.6475712,40.38825 L35.454636,40.1692812 L37.4114417,40.1692812 L37.4114417,38.6403281 L35.5171683,38.6403281 L35.5171683,37.4827031 L37.4114417,37.4827031 L37.4114417,35.9614062 L35.5171683,35.9614062 L35.5171683,34.2908125 L33.9950388,34.2908125 L33.9950388,35.9614062 L30.6571827,35.9614062 L30.6571827,34.2908125 L29.2013986,34.2908125 L29.2013986,35.9614062 L27.3033122,35.9614062 L27.3033122,37.4827031 L29.2013986,37.4827031 L29.2013986,38.6403281 L27.3033122,38.6403281 L27.3033122,40.1692812 L29.260118,40.1692812 L29.0664201,40.38825 C28.2481612,41.2656562 27.9972691,41.2687187 27.7562906,41.2687187 L26.732895,41.2687187 L26.732895,42.8589219 L27.7562906,42.8589219 C28.0087079,42.8589219 28.2405353,42.8252344 28.4677871,42.7578594 L28.4677871,47.0560781 C28.4677871,47.5659844 28.4677871,48.9196094 30.1073554,48.9196094 L35.5545353,48.9196094 C36.0624201,48.9196094 37.4114417,48.9196094 37.4114417,47.2735156 L37.4114417,46.1557031 L35.8885496,46.1557031 L35.8885496,46.8309844 C35.8885496,47.2115 35.6918014,47.3914219 35.3257583,47.3914219 L30.2911396,47.3914219 C30.2080173,47.3914219 29.9899165,47.3914219 29.9899165,47.1219219 L29.9899165,46.0469844 L34.1872115,46.0469844 Z" id="Fill-17" fill="#FFFFFF" mask="url(#mask-2)"></path>
                        <path d="M3.17466187,44.9999156 L11.0247626,44.9999156 L11.0247626,43.9066031 L3.17466187,43.9066031 L3.17466187,44.9999156 Z M11.0247626,47.3917281 L3.68864748,47.3917281 C3.31955396,47.3917281 3.17618705,47.1704625 3.17618705,46.7493688 L3.17618705,46.3121969 L11.0247626,46.3121969 L11.0247626,47.3917281 Z M12.8740432,40.325775 C12.5232518,40.325775 12.2288921,40.2744781 11.3709784,39.5800563 C11.2321871,39.4675094 11.0628921,39.3304625 10.8783453,39.1811656 L14.191036,39.1811656 L14.191036,37.6575719 L7.85315108,37.6575719 L7.85315108,36.5543063 L12.5125755,35.8254313 L12.5125755,34.2957125 L7.23316547,35.1210563 C7.22020144,35.1233531 5.88033094,35.3254781 4.61671942,35.3254781 L1.65329496,35.3254781 L1.65329496,36.8368219 L4.61671942,36.8368219 C5.22374101,36.8368219 5.83610072,36.7954781 6.33788489,36.748775 L6.33788489,37.6575719 L0,37.6575719 L0,39.1811656 L3.31269065,39.1811656 C3.12814388,39.3304625 2.95884892,39.4675094 2.82005755,39.5800563 C1.96214388,40.2737125 1.66778417,40.325775 1.31623022,40.325775 L0,40.325775 L0,41.9167438 L1.31623022,41.9167438 C2.16880576,41.9167438 2.79870504,41.6395875 3.81447482,40.8180719 C4.32541007,40.4054 5.2397554,39.6627438 5.83305036,39.1811656 L6.33788489,39.1811656 L6.33788489,42.3684625 L1.65329496,42.3684625 L1.65329496,47.0716969 C1.65329496,47.5816031 1.65329496,48.9199156 3.29286331,48.9199156 L12.5224892,48.9199156 L12.5224892,42.3684625 L7.85315108,42.3684625 L7.85315108,39.1811656 L8.35798561,39.1811656 C8.95128058,39.6627438 9.86638849,40.4054 10.3765612,40.8180719 C11.3915683,41.6395875 12.0222302,41.9167438 12.8740432,41.9167438 L14.191036,41.9167438 L14.191036,40.325775 L12.8740432,40.325775 Z" id="Fill-18" fill="#FFFFFF" mask="url(#mask-2)"></path>
                    </g>
                </g>
            </g>
        </g>
    </g>
</svg>