<?xml version="1.0" encoding="UTF-8" standalone="no"?>
<svg width="90px" height="42px" viewBox="0 0 90 42" version="1.1" xmlns="http://www.w3.org/2000/svg" xmlns:xlink="http://www.w3.org/1999/xlink">
    <!-- Generator: Sketch 40.2 (33826) - http://www.bohemiancoding.com/sketch -->
    <title>Group 5</title>
    <desc>Created with Sketch.</desc>
    <defs></defs>
    <g id="Symbols" stroke="none" stroke-width="1" fill="none" fill-rule="evenodd">
        <g id="FOOTER" transform="translate(-261.000000, -58.000000)">
            <g id="Group-5">
                <g transform="translate(261.000000, 58.000000)">
                    <path d="M46.663964,30.8239969 L45.9323094,29.3920594 L44.6444676,29.3920594 L45.3735324,30.8239969 L39.9974892,30.8239969 L39.9974892,32.1279656 L52.063964,32.1279656 L52.063964,30.8239969 L46.663964,30.8239969 Z M50.5572734,35.9185969 L52.063964,35.9185969 L52.063964,34.6421906 L51.0700791,34.6421906 C50.7508705,34.6421906 50.4543237,34.4886281 49.6922374,33.7168781 L48.8764101,32.8722844 L47.1042518,32.8722844 L48.6556187,34.4577844 L46.0307266,36.7835344 L43.4058345,34.4577844 L44.9572014,32.8722844 L43.1843957,32.8722844 L42.3685683,33.7168781 C41.6071295,34.4886281 41.3105827,34.6421906 40.9907266,34.6421906 L39.9968417,34.6421906 L39.9968417,35.9185969 L41.5035324,35.9185969 C41.7489281,35.9185969 41.9820216,35.8260656 42.4190719,35.4362531 L44.9928129,37.7029406 L42.3044676,40.0851281 C41.8861942,40.4493469 41.5410863,40.6206281 40.7136043,40.6206281 L39.9974892,40.6206281 L39.9974892,41.9311594 C39.9754748,41.9311594 41.1415899,41.9305031 41.1415899,41.9305031 C42.0124532,41.9305031 42.2358345,41.9035969 42.8936763,41.3779406 L46.0307266,38.6164406 L49.1671295,41.3779406 C49.8249712,41.9035969 50.0483525,41.9305031 50.9198633,41.9305031 C50.9198633,41.9305031 52.0859784,41.9311594 52.063964,41.9311594 L52.063964,40.6206281 L51.3472014,40.6206281 C50.5197194,40.6206281 50.1746115,40.4493469 49.7569856,40.0851281 L47.0679928,37.7029406 L49.6417338,35.4362531 C50.0794317,35.8260656 50.3125252,35.9185969 50.5572734,35.9185969 Z M64.1658561,4.42456875 L64.1658561,0.0126 L53.0149209,0.0126 L51.4771511,0.0126 L48.6586619,0.0126 L48.6586619,22.2522563 L51.4771511,22.2522563 L64.1658561,22.2522563 L64.1658561,17.833725 L53.0149209,17.833725 L53.0149209,13.3049438 L63.6142014,13.3049438 L63.6142014,8.88838125 L53.0149209,8.88838125 L53.0149209,4.42456875 L64.1658561,4.42456875 Z M14.986036,0.01246875 L14.986036,8.925 L4.35567626,8.925 L4.35567626,0.01246875 L6.47482011e-05,0.01246875 L6.47482011e-05,22.252125 L4.35567626,22.252125 L4.35567626,13.3395937 L14.986036,13.3395937 L14.986036,22.252125 L19.342295,22.252125 L19.342295,0.01246875 L14.986036,0.01246875 Z M44.8119065,22.2496312 L36.6873022,9.88588125 C37.0460072,9.570225 37.5510432,9.1252875 37.8456475,8.8575375 C41.6858633,5.3610375 42.0685252,1.28638125 42.0892446,0.020475 L37.8832014,0.020475 C37.8702518,0.6216 37.7284532,3.32469375 35.0796043,5.7364125 C33.8319065,6.87238125 31.7942806,8.60356875 30.1542086,9.9810375 L30.1542086,0.09200625 L25.8134892,0.09200625 L25.8134892,22.2522562 L30.1542086,22.2522562 L30.1542086,15.35835 L30.1807554,15.3911625 C30.2947122,15.2973187 31.7884532,14.0629125 33.5204676,12.6014437 L39.7757914,22.2496312 L44.8119065,22.2496312 Z M89.6958777,31.1045437 L89.6958777,29.7946687 L85.9741511,29.7946687 C85.2625683,29.7946687 84.6863094,30.3767625 84.6824245,31.0966687 L84.6811295,31.1045437 L84.6824245,31.1038875 L84.6824245,40.1345437 C84.6824245,40.4961375 84.5827122,40.6214812 84.2382518,40.6214812 L83.7047266,40.6214812 L83.7047266,41.9313562 L84.5833597,41.9313562 C85.975446,41.9313562 85.975446,40.77045 85.975446,40.3333875 L85.9747986,40.3340437 L85.9747986,40.3333875 L85.9747986,34.14495 L87.794223,34.14495 L87.794223,41.9129812 L89.0865971,41.9129812 L89.0865971,34.14495 L89.6958777,34.14495 L89.6958777,32.835075 L85.9747986,32.835075 L85.9747986,31.6964812 C85.9747986,31.323075 86.1690432,31.1045437 86.4908417,31.1045437 L89.6958777,31.1045437 Z M80.5771942,31.1045438 L83.7815827,31.1045438 L83.7815827,29.7946688 L80.0598561,29.7946688 C79.3489209,29.7946688 78.7726619,30.3767625 78.7681295,31.0966688 L78.767482,31.1045438 L78.7681295,31.1038875 L78.7681295,40.1352 C78.7681295,40.4961375 78.6690647,40.6214813 78.3239568,40.6214813 L77.7904317,40.6214813 L77.7904317,41.9313563 L78.6690647,41.9313563 C80.0611511,41.9313563 80.0611511,40.77045 80.0611511,40.3333875 L80.0605036,40.3340438 L80.0605036,40.3333875 L80.0605036,37.4636063 L83.6125899,37.4636063 L83.6125899,32.835075 L80.0605036,32.835075 L80.0605036,31.6964813 C80.0605036,31.323075 80.2553957,31.1045438 80.5771942,31.1045438 Z M80.0605036,36.1537313 L82.3273381,36.1537313 L82.3273381,34.1456063 L80.0605036,34.1456063 L80.0605036,36.1537313 Z M89.6958777,-6.56249999e-05 L89.6958777,4.41124688 C86.049259,4.41977813 83.095446,7.41818438 83.095446,11.1161531 C83.095446,14.8134656 86.049259,17.8118719 89.6958777,17.8204031 L89.6958777,22.2271219 C83.6399784,22.2271219 78.7307698,17.2514344 78.7307698,11.1135281 C78.7307698,4.97562188 83.6399784,-6.56249999e-05 89.6958777,-6.56249999e-05 Z M70.8830935,35.5775438 L70.8830935,31.3932938 C70.8830935,30.9562313 70.8397122,29.795325 69.4476259,29.795325 L60.2229496,29.795325 L60.2229496,35.5775438 L62.137554,35.5775438 C62.0954676,35.6510438 61.4965468,36.6715125 61.4531655,36.7371375 C61.0970504,37.2752625 61.0122302,37.402575 60.3653957,37.402575 L59.2478417,37.402575 L59.2478417,38.7058875 L60.3653957,38.7058875 C61.3372662,38.7058875 61.8144604,38.38695 62.208777,37.8973875 L62.9773381,37.8973875 C62.7830935,38.268825 61.8507194,39.8956688 61.8073381,39.9612938 C61.4505755,40.4987625 61.3657554,40.6267313 60.7189209,40.6267313 L59.6013669,40.6267313 L59.6013669,41.9293875 L60.7189209,41.9293875 C61.954964,41.9293875 62.3920144,41.4148875 62.8743885,40.6877625 C62.9482014,40.5762 64.403741,37.948575 64.4309353,37.8973875 L66.833741,37.8973875 C66.6394964,38.268825 65.7071223,39.8956688 65.663741,39.9612938 C65.3069784,40.4987625 65.2221583,40.6267313 64.5759712,40.6267313 L63.4577698,40.6267313 L63.4577698,41.9293875 L64.5759712,41.9293875 C65.8120144,41.9293875 66.2484173,41.4148875 66.7307914,40.6877625 C66.8046043,40.5762 68.2601439,37.9498875 68.2873381,37.8973875 L69.5900719,37.8973875 L69.5900719,39.9777 C69.5900719,40.4088563 69.3997122,40.6254188 68.94,40.6254188 L67.9765468,40.6254188 L67.9765468,41.9313563 L69.4910072,41.9313563 C70.8830935,41.9313563 70.8830935,40.77045 70.8830935,40.3333875 L70.8830935,36.5901375 L63.0414388,36.5901375 C63.1819424,36.3447 63.4733094,35.8334813 63.6144604,35.5775438 L70.8830935,35.5775438 Z M61.5094964,31.1058563 L68.976259,31.1058563 C69.4327338,31.1058563 69.5965468,31.3302938 69.5965468,31.653825 L69.5965468,32.1427313 L61.5094964,32.1427313 L61.5094964,31.1058563 Z M61.5094964,34.299825 L69.5965468,34.299825 L69.5965468,33.2675437 L61.5094964,33.2675437 L61.5094964,34.299825 Z M22.2812806,40.3335844 L22.2812806,36.7366781 L20.9889065,36.7366781 L20.9889065,40.2574594 C20.9889065,40.5455531 20.8056691,40.6210219 20.5473237,40.6210219 L20.0112086,40.6210219 L20.0112086,41.9315531 L20.8898417,41.9315531 C22.2819281,41.9315531 22.2819281,40.7706469 22.2819281,40.3335844 L22.2812806,40.3335844 Z M20.1309928,33.031425 L20.8626475,35.0152688 L20.9940863,35.372925 L22.2838705,35.372925 L21.4188345,33.031425 L20.1309928,33.031425 Z M20.1309928,29.9488875 L20.8626475,31.9327312 L20.9940863,32.2903875 L22.2838705,32.2903875 L21.4188345,29.9488875 L20.1309928,29.9488875 Z M29.0268777,39.4688437 C29.3920576,39.4688437 30.2674532,39.4655625 30.5270935,38.6071875 C30.5283885,38.6019375 30.5303309,38.5966875 30.5316259,38.5914375 C30.5426331,38.553375 30.5529928,38.5133437 30.5614101,38.472 C30.5717698,38.427375 30.5788921,38.380125 30.5853669,38.3315625 C30.5873094,38.31975 30.5892518,38.3085937 30.5905468,38.2967812 C30.600259,38.21475 30.6067338,38.1287812 30.6067338,38.0342812 L30.6067338,36.5918437 C30.8534245,36.6915937 31.102705,36.7362187 31.3798273,36.7362187 L32.2481007,36.7362187 L32.2481007,35.3731875 C32.2481007,35.3731875 31.3286763,35.3731875 31.301482,35.3712187 C31.1143597,35.3607187 30.8754388,35.2767187 30.2668058,34.6185 L30.1029928,34.4308125 L31.7644317,34.4308125 L31.7644317,33.1202812 L30.1560863,33.1202812 L30.1560863,32.1280312 L31.7644317,32.1280312 L31.7644317,30.8240625 L30.1560863,30.8240625 L30.1560863,29.392125 L28.8637122,29.392125 L28.8637122,30.8240625 L26.0296835,30.8240625 L26.0296835,29.392125 L24.7936403,29.392125 L24.7936403,30.8240625 L23.1820576,30.8240625 L23.1820576,32.1280312 L24.7936403,32.1280312 L24.7936403,33.1202812 L23.1820576,33.1202812 L23.1820576,34.4308125 L24.8434964,34.4308125 L24.679036,34.6185 C23.9842878,35.3705625 23.7712662,35.3731875 23.5666619,35.3731875 L22.697741,35.3731875 L22.697741,36.7362187 L23.5666619,36.7362187 C23.7809784,36.7362187 23.9778129,36.7073437 24.1707626,36.6495937 L24.1707626,40.3337812 C24.1707626,40.7708437 24.1707626,41.9310937 25.5628489,41.9310937 L30.1878129,41.9310937 C30.619036,41.9310937 31.7644317,41.9310937 31.7644317,40.5201562 L31.7644317,39.5620312 L30.4714101,39.5620312 L30.4714101,40.1408437 C30.4714101,40.467 30.3043597,40.6212187 29.9935683,40.6212187 L25.7188921,40.6212187 C25.6483165,40.6212187 25.4631367,40.6212187 25.4631367,40.3902187 L25.4631367,39.4688437 L29.0268777,39.4688437 Z M26.6836403,34.4308125 L28.2628489,34.4262187 C28.385223,34.5600937 29.447741,35.721 29.5701151,35.8410937 L25.3757266,35.8410937 C25.4981007,35.721 26.5612662,34.5640312 26.6836403,34.4308125 Z M26.0296835,32.1280312 L28.8637122,32.1280312 L28.8637122,33.1202812 L26.0335683,33.1202812 L26.0296835,33.1202812 L26.0296835,32.1280312 Z M29.3104748,37.6779375 C29.3104748,38.00475 29.142777,38.1583125 28.8326331,38.1583125 L25.4631367,38.1583125 L25.4631367,37.1404687 L29.3104748,37.1404687 L29.3104748,37.6779375 Z M10.9307914,34.56495 C10.6329496,34.56495 10.3830216,34.5209813 9.65460432,33.9257625 C9.53676259,33.8292938 9.39302158,33.711825 9.23633094,33.5838563 L12.0489928,33.5838563 L12.0489928,32.2779188 L6.66776978,32.2779188 L6.66776978,31.3322625 L10.6238849,30.7075125 L10.6238849,29.396325 L6.14136691,30.1037625 C6.13035971,30.1057313 4.99273381,30.2789813 3.91985612,30.2789813 L1.40374101,30.2789813 L1.40374101,31.5744188 L3.91985612,31.5744188 C4.4352518,31.5744188 4.95517986,31.5389813 5.38122302,31.49895 L5.38122302,32.2779188 L0,32.2779188 L0,33.5838563 L2.81266187,33.5838563 C2.65597122,33.711825 2.51223022,33.8292938 2.39438849,33.9257625 C1.66597122,34.520325 1.41604317,34.56495 1.11755396,34.56495 L0,34.56495 L0,35.9286375 L1.11755396,35.9286375 C1.84143885,35.9286375 2.37625899,35.691075 3.23870504,34.9869188 C3.67251799,34.6332 4.44884892,33.9966375 4.95258993,33.5838563 L5.38122302,33.5838563 L5.38122302,36.315825 L1.40374101,36.315825 L1.40374101,40.3471688 C1.40374101,40.7842313 1.40374101,41.9313563 2.79582734,41.9313563 L10.6323022,41.9313563 L10.6323022,36.315825 L6.66776978,36.315825 L6.66776978,33.5838563 L7.09640288,33.5838563 C7.60014388,33.9966375 8.3771223,34.6332 8.81028777,34.9869188 C9.67208633,35.691075 10.207554,35.9286375 10.9307914,35.9286375 L12.0489928,35.9286375 L12.0489928,34.56495 L10.9307914,34.56495 Z M9.36064748,40.6214813 L3.1318705,40.6214813 C2.81848921,40.6214813 2.69676259,40.431825 2.69676259,40.0708875 L2.69676259,39.6961688 L9.36064748,39.6961688 L9.36064748,40.6214813 Z M2.69546763,38.5713563 L9.36064748,38.5713563 L9.36064748,37.6342313 L2.69546763,37.6342313 L2.69546763,38.5713563 Z" id="Combined-Shape" fill="#FFFFFF"></path>
                    <path d="M70.219295,-6.56249999e-05 L70.219295,4.41124688 C73.8659137,4.41977813 76.8197266,7.41818438 76.8197266,11.1161531 C76.8197266,14.8134656 73.8659137,17.8118719 70.219295,17.8204031 L70.219295,22.2271219 C76.2751942,22.2271219 81.1844029,17.2514344 81.1844029,11.1135281 C81.1844029,4.97562188 76.2751942,-6.56249999e-05 70.219295,-6.56249999e-05" id="Combined-Shape" fill="#F4364C"></path>
                </g>
            </g>
        </g>
    </g>
</svg>