<?xml version="1.0" encoding="UTF-8"?>
<svg width="20px" height="23px" viewBox="0 0 20 23" version="1.1" xmlns="http://www.w3.org/2000/svg" xmlns:xlink="http://www.w3.org/1999/xlink">
    <!-- Generator: Sketch 41 (35326) - http://www.bohemiancoding.com/sketch -->
    <title>Group 12</title>
    <desc>Created with Sketch.</desc>
    <defs></defs>
    <g id="News-Releases" stroke="none" stroke-width="1" fill="none" fill-rule="evenodd">
        <g id="NEWS-RELEASES-v5" transform="translate(-590.000000, -2032.000000)">
            <g id="Group-13" transform="translate(220.000000, 1963.000000)">
                <g id="tweet-1" transform="translate(30.000000, 49.000000)">
                    <g id="Group-18" transform="translate(339.000000, 15.000000)">
                        <g id="Group-12" transform="translate(1.000000, 5.000000)">
                            <path d="M0,0 L0,4.48133333 C3.75466667,4.49 6.796,7.536 6.796,11.2926667 C6.796,15.0486667 3.75466667,18.0946667 0,18.1033333 L0,22.58 C6.23533333,22.58 11.29,17.5253333 11.29,11.29 C11.29,5.05466667 6.23533333,0 0,0" id="Fill-11" fill="#F4364C"></path>
                            <path d="M19.9566667,0 L19.9566667,4.48133333 C16.202,4.49 13.1606667,7.536 13.1606667,11.2926667 C13.1606667,15.0486667 16.202,18.0946667 19.9566667,18.1033333 L19.9566667,22.58 C13.7213333,22.58 8.66666667,17.5253333 8.66666667,11.29 C8.66666667,5.05466667 13.7213333,0 19.9566667,0" id="Fill-12" fill="#13426B"></path>
                        </g>
                    </g>
                </g>
            </g>
        </g>
    </g>
</svg>