<?xml version="1.0" encoding="UTF-8"?>
<svg width="50px" height="50px" viewBox="0 0 50 50" version="1.1" xmlns="http://www.w3.org/2000/svg" xmlns:xlink="http://www.w3.org/1999/xlink">
    <!-- Generator: Sketch 41 (35326) - http://www.bohemiancoding.com/sketch -->
    <title>Group</title>
    <desc>Created with Sketch.</desc>
    <defs></defs>
    <g id="FAQ" stroke="none" stroke-width="1" fill="none" fill-rule="evenodd">
        <g id="FAQ-Mobile-NEW-sc1" transform="translate(-270.000000, -55.000000)">
            <g id="top-que-DROP-DOWN-" transform="translate(0.000000, 55.000000)">
                <g id="Group" transform="translate(270.000000, 0.000000)">
                    <rect id="Rectangle-6" fill="#10416C" x="0" y="0" width="50" height="50"></rect>
                    <g id="SUB-hamburger-menu" transform="translate(12.000000, 16.000000)" fill="#FFFFFF">
                        <g id="Shape">
                            <path d="M0,17 L3,17 L3,14.1666667 L0,14.1666667 L0,17 L0,17 Z M0,9.91666667 L3,9.91666667 L3,7.08333333 L0,7.08333333 L0,9.91666667 L0,9.91666667 Z M0,0 L0,2.83333333 L3,2.83333333 L3,0 L0,0 L0,0 Z"></path>
                            <path d="M7,17 L26,17 L26,14.1666667 L7,14.1666667 L7,17 L7,17 Z M7,9.91666667 L26,9.91666667 L26,7.08333333 L7,7.08333333 L7,9.91666667 L7,9.91666667 Z M7,0 L7,2.83333333 L26,2.83333333 L26,0 L7,0 L7,0 Z"></path>
                        </g>
                    </g>
                </g>
            </g>
        </g>
    </g>
</svg>