<?xml version="1.0" encoding="UTF-8"?>
<svg width="25px" height="14px" viewBox="0 0 25 14" version="1.1" xmlns="http://www.w3.org/2000/svg" xmlns:xlink="http://www.w3.org/1999/xlink">
    <!-- Generator: Sketch 41 (35326) - http://www.bohemiancoding.com/sketch -->
    <title>pdf</title>
    <desc>Created with Sketch.</desc>
    <defs>
        <rect id="path-1" x="1.95833333" y="2" width="21.0416667" height="10" rx="2"></rect>
        <mask id="mask-2" maskContentUnits="userSpaceOnUse" maskUnits="objectBoundingBox" x="-1" y="-1" width="23.0416667" height="12">
            <rect x="0.958333333" y="1" width="23.0416667" height="12" fill="white"></rect>
            <use xlink:href="#path-1" fill="black"></use>
        </mask>
    </defs>
    <g id="Symbols" stroke="none" stroke-width="1" fill="none" fill-rule="evenodd">
        <g id="pdf">
            <g id="Rectangle">
                <use fill="#FFFFFF" fill-rule="evenodd" xlink:href="#path-1"></use>
                <use stroke="#E72742" mask="url(#mask-2)" stroke-width="2" xlink:href="#path-1"></use>
            </g>
            <path d="M4.9,10 L5.62,10 L5.62,7.741 L7.177,7.741 C8.356,7.741 9.202,6.958 9.202,5.851 C9.202,4.735 8.356,3.952 7.177,3.952 L4.9,3.952 L4.9,10 Z M5.62,4.537 L7.069,4.537 C7.888,4.537 8.473,5.086 8.473,5.851 C8.473,6.616 7.888,7.156 7.069,7.156 L5.62,7.156 L5.62,4.537 Z M10.48,10 L12.523,10 C14.359,10 15.601,8.758 15.601,6.976 C15.601,5.176 14.359,3.952 12.523,3.952 L10.48,3.952 L10.48,10 Z M14.845,6.976 C14.845,8.407 13.864,9.415 12.451,9.415 L11.218,9.415 L11.218,4.537 L12.451,4.537 C13.864,4.537 14.845,5.545 14.845,6.976 Z M16.951,10 L17.689,10 L17.689,7.426 L20.524,7.426 L20.524,6.841 L17.689,6.841 L17.689,4.537 L20.812,4.537 L20.812,3.952 L16.951,3.952 L16.951,10 Z" id="PDF" fill="#E72742"></path>
        </g>
    </g>
</svg>