<?xml version="1.0" encoding="UTF-8"?>
<svg width="15px" height="12px" viewBox="0 0 15 12" version="1.1" xmlns="http://www.w3.org/2000/svg" xmlns:xlink="http://www.w3.org/1999/xlink">
    <!-- Generator: Sketch 41 (35326) - http://www.bohemiancoding.com/sketch -->
    <title>“</title>
    <desc>Created with Sketch.</desc>
    <defs></defs>
    <g id="News-Releases" stroke="none" stroke-width="1" fill="none" fill-rule="evenodd">
        <g id="NEWS-RELEASES-v5---Mob" transform="translate(-10.000000, -894.000000)" fill="#7E5C8B">
            <g id="Pinned-news" transform="translate(0.000000, 134.000000)">
                <g id="Group-8" transform="translate(0.000000, 703.000000)">
                    <g id="120773290">
                        <g id="Group-16">
                            <g transform="translate(-258.000000, -1.000000)">
                                <path d="M274.632,66.404 C274.632,64.964 273.624,63.884 272.184,63.74 C272.508,62.372 273.372,61.112 274.812,59.96 L273.408,58.16 C270.492,59.96 268.8,62.732 268.8,65.72 C268.8,67.844 269.988,69.284 271.752,69.284 C273.444,69.284 274.632,68.06 274.632,66.404 Z M282.624,66.404 C282.624,64.964 281.616,63.884 280.176,63.74 C280.5,62.372 281.364,61.112 282.804,59.96 L281.4,58.16 C278.484,59.96 276.792,62.732 276.792,65.72 C276.792,67.844 277.98,69.284 279.744,69.284 C281.436,69.284 282.624,68.06 282.624,66.404 Z" id="“"></path>
                            </g>
                        </g>
                    </g>
                </g>
            </g>
        </g>
    </g>
</svg>