<?xml version="1.0" encoding="UTF-8"?>
<svg width="15px" height="20px" viewBox="0 0 15 20" version="1.1" xmlns="http://www.w3.org/2000/svg" xmlns:xlink="http://www.w3.org/1999/xlink">
    <!-- Generator: sketchtool 41 (35326) - http://www.bohemiancoding.com/sketch -->
    <title>53C6F67B-6468-4264-9CD7-AD8321E7B5CB</title>
    <desc>Created with sketchtool.</desc>
    <defs></defs>
    <g id="News" stroke="none" stroke-width="1" fill="none" fill-rule="evenodd">
        <g id="NEWS-RELEASES" transform="translate(-320.000000, -2700.000000)" fill="#D1DDE6">
            <g id="Group-13" transform="translate(220.000000, 1920.000000)">
                <g id="tweet-1-copy" transform="translate(30.000000, 442.000000)">
                    <path d="M84.2857143,342.111346 L80.245,338 L79.235,339.08003 L81.5514286,341.407928 L70,341.407928 L70,348.230607 L71.4285714,348.230607 L71.4285714,342.772464 L81.5514286,342.772464 L79.235,344.867708 L80.245,345.77376 L84.2857143,342.111346 Z M82.8571429,353.688749 L72.7342857,353.688749 L75.0507143,351.359487 L74.0407143,350.336085 C70.4792857,353.703077 71.2921429,352.936208 70,354.151327 C71.5907143,355.661186 70.7071429,354.820632 74.0407143,358 L75.0507143,357.150577 L72.7342857,355.053285 L84.2857143,355.053285 L84.2857143,348.230607 L82.8571429,348.230607 L82.8571429,353.688749 Z" id="arrow_repeat-[#241]"></path>
                </g>
            </g>
        </g>
    </g>
</svg>