<?xml version="1.0" encoding="UTF-8" standalone="no"?>
<svg width="18px" height="18px" viewBox="0 0 18 18" version="1.1" xmlns="http://www.w3.org/2000/svg" xmlns:xlink="http://www.w3.org/1999/xlink">
    <!-- Generator: sketchtool 39.1 (31720) - http://www.bohemiancoding.com/sketch -->
    <title>A18F9055-0C50-4852-AC6C-5AF53AE9FAE4</title>
    <desc>Created with sketchtool.</desc>
    <defs></defs>
    <g id="Symbols" stroke="none" stroke-width="1" fill="none" fill-rule="evenodd">
        <g id="FOOTER" transform="translate(-1157.000000, -62.000000)" fill="#FFFFFF">
            <g id="Group-20">
                <g transform="translate(933.000000, 60.000000)">
                    <path d="M225.8,20 C226.794113,20 227.6,19.1941125 227.6,18.2 C227.6,17.2058875 226.794113,16.4 225.8,16.4 C224.805887,16.4 224,17.2058875 224,18.2 C224,19.1941125 224.805887,20 225.8,20 Z M224,2 L224,5.6 C231.95285,5.6 238.4,12.04715 238.4,20 L242,20 C242,10.058825 233.941175,2 224,2 Z M224,9.2 L224,12.8 C227.976425,12.8 231.2,16.023575 231.2,20 L234.8,20 C234.8,14.03525 229.96475,9.2 224,9.2 Z" id="Combined-Shape"></path>
                </g>
            </g>
        </g>
    </g>
</svg>