<?xml version="1.0" encoding="UTF-8" standalone="no"?>
<svg width="18px" height="18px" viewBox="0 0 18 18" version="1.1" xmlns="http://www.w3.org/2000/svg" xmlns:xlink="http://www.w3.org/1999/xlink">
    <!-- Generator: Sketch 39.1 (31720) - http://www.bohemiancoding.com/sketch -->
    <title>Combined Shape</title>
    <desc>Created with Sketch.</desc>
    <defs></defs>
    <g id="Home" stroke="none" stroke-width="1" fill="none" fill-rule="evenodd">
        <g id="Homepage-sticky-menu-search" transform="translate(-1202.000000, -12.000000)" fill="#FFFFFF">
            <g id="Hdr-Nav">
                <path d="M1219.8291,29.020013 L1215.18221,24.4457087 C1216.39865,23.1234928 1217.1464,21.3792931 1217.1464,19.455047 C1217.1464,15.3364852 1213.75591,12 1209.5732,12 C1205.3905,12 1202,15.3364852 1202,19.455047 C1202,23.5679824 1205.3905,26.9044676 1209.5732,26.9044676 C1211.38042,26.9044676 1213.03797,26.2799315 1214.33993,25.2390382 L1219.00538,29.8302219 C1219.23326,30.0552799 1219.60179,30.0552799 1219.8291,29.8302219 C1220.05697,29.6107903 1220.05697,29.245071 1219.8291,29.020013 Z M1209.5732,25.7566716 C1206.03417,25.7566716 1203.16524,22.9378199 1203.16524,19.455047 C1203.16524,15.9722741 1206.03417,13.1477959 1209.5732,13.1477959 C1213.11224,13.1477959 1215.98173,15.9722741 1215.98173,19.455047 C1215.98173,22.9378199 1213.11224,25.7566716 1209.5732,25.7566716 Z" id="Combined-Shape"></path>
            </g>
        </g>
    </g>
</svg>