<?xml version="1.0" encoding="UTF-8" standalone="no"?>
<svg width="18px" height="18px" viewBox="0 0 18 18" version="1.1" xmlns="http://www.w3.org/2000/svg" xmlns:xlink="http://www.w3.org/1999/xlink">
    <!-- Generator: sketchtool 39.1 (31720) - http://www.bohemiancoding.com/sketch -->
    <title>3B9F91FF-3331-48C8-B0D7-6225D9838631</title>
    <desc>Created with sketchtool.</desc>
    <defs></defs>
    <g id="Symbols" stroke="none" stroke-width="1" fill="none" fill-rule="evenodd">
        <g id="Hdr-Nav" transform="translate(-960.000000, -30.000000)" fill="#10416C">
            <g id="Sub-Nav">
                <g transform="translate(601.000000, 22.000000)">
                    <path d="M366.573202,21.7566716 C363.034165,21.7566716 360.165238,18.9378199 360.165238,15.455047 C360.165238,11.9722741 363.034165,9.14779592 366.573202,9.14779592 C370.11224,9.14779592 372.98173,11.9722741 372.98173,15.455047 C372.98173,18.9378199 370.11224,21.7566716 366.573202,21.7566716 L366.573202,21.7566716 L366.573202,21.7566716 Z M376.829097,25.020013 L372.182211,20.4457087 C373.39865,19.1234928 374.146405,17.3792931 374.146405,15.455047 C374.146405,11.3364852 370.755906,8 366.573202,8 C362.390499,8 359,11.3364852 359,15.455047 C359,19.5679824 362.390499,22.9044676 366.573202,22.9044676 C368.380418,22.9044676 370.037971,22.2799315 371.339931,21.2390382 L376.005384,25.8302219 C376.233255,26.0552799 376.601788,26.0552799 376.829097,25.8302219 C377.056968,25.6107903 377.056968,25.245071 376.829097,25.020013 L376.829097,25.020013 L376.829097,25.020013 Z" id="search"></path>
                </g>
            </g>
        </g>
    </g>
</svg>