<?xml version="1.0" encoding="UTF-8" standalone="no"?>
<svg width="19px" height="18px" viewBox="0 0 19 18" version="1.1" xmlns="http://www.w3.org/2000/svg" xmlns:xlink="http://www.w3.org/1999/xlink">
    <!-- Generator: sketchtool 39.1 (31720) - http://www.bohemiancoding.com/sketch -->
    <title>A859360F-332F-430D-BD19-235879EF5E48</title>
    <desc>Created with sketchtool.</desc>
    <defs></defs>
    <g id="Home" stroke="none" stroke-width="1" fill="none" fill-rule="evenodd" stroke-linecap="round">
        <g id="Homepage-sticky-menu-search" transform="translate(-1202.000000, -12.000000)" fill="#FFFFFF">
            <g id="Hdr-Nav">
                <path d="M1210.65405,21 L1202.80298,13.1008645 C1202.56938,12.865836 1202.57054,12.4859388 1202.80557,12.2523403 C1203.0406,12.0187419 1203.42049,12.0199012 1203.65409,12.2549297 L1211.5,20.1488706 L1219.34591,12.2549297 C1219.57951,12.0199012 1219.9594,12.0187419 1220.19443,12.2523403 C1220.42946,12.4859388 1220.43062,12.865836 1220.19702,13.1008645 L1212.34595,21 L1220.19702,28.8991355 C1220.43062,29.134164 1220.42946,29.5140612 1220.19443,29.7476597 C1219.9594,29.9812581 1219.57951,29.9800988 1219.34591,29.7450703 L1211.5,21.8511294 L1203.65409,29.7450703 C1203.42049,29.9800988 1203.0406,29.9812581 1202.80557,29.7476597 C1202.57054,29.5140612 1202.56938,29.134164 1202.80298,28.8991355 L1210.65405,21 Z" id="Combined-Shape"></path>
            </g>
        </g>
    </g>
</svg>