<?xml version="1.0" encoding="UTF-8" standalone="no"?>
<svg width="18px" height="18px" viewBox="0 0 18 18" version="1.1" xmlns="http://www.w3.org/2000/svg" xmlns:xlink="http://www.w3.org/1999/xlink">
    <!-- Generator: sketchtool 39.1 (31720) - http://www.bohemiancoding.com/sketch -->
    <title>9F7856CC-333D-49E5-A396-9A81C8A5CA09</title>
    <desc>Created with sketchtool.</desc>
    <defs></defs>
    <g id="Key-Templates-tk3" stroke="none" stroke-width="1" fill="none" fill-rule="evenodd">
        <g id="Mega-Menu-Data" transform="translate(-233.000000, -184.000000)" fill="#E72742">
            <g id="Data" transform="translate(0.000000, 74.000000)">
                <g id="Group-2" transform="translate(220.000000, 71.000000)">
                    <g id="search" transform="translate(0.000000, 25.000000)">
                        <path d="M20.5732025,27.7566716 C17.0341651,27.7566716 14.1652379,24.9378199 14.1652379,21.455047 C14.1652379,17.9722741 17.0341651,15.1477959 20.5732025,15.1477959 C24.1122399,15.1477959 26.9817297,17.9722741 26.9817297,21.455047 C26.9817297,24.9378199 24.1122399,27.7566716 20.5732025,27.7566716 L20.5732025,27.7566716 L20.5732025,27.7566716 Z M30.8290966,31.020013 L26.182211,26.4457087 C27.3986497,25.1234928 28.1464049,23.3792931 28.1464049,21.455047 C28.1464049,17.3364852 24.7559058,14 20.5732025,14 C16.3904991,14 13,17.3364852 13,21.455047 C13,25.5679824 16.3904991,28.9044676 20.5732025,28.9044676 C22.3804184,28.9044676 24.0379707,28.2799315 25.3399314,27.2390382 L30.0053842,31.8302219 C30.2332554,32.0552799 30.601788,32.0552799 30.8290966,31.8302219 C31.0569678,31.6107903 31.0569678,31.245071 30.8290966,31.020013 L30.8290966,31.020013 L30.8290966,31.020013 Z"></path>
                    </g>
                </g>
            </g>
        </g>
    </g>
</svg>