<?xml version="1.0" encoding="UTF-8"?>
<svg width="15px" height="17px" viewBox="0 0 15 17" version="1.1" xmlns="http://www.w3.org/2000/svg" xmlns:xlink="http://www.w3.org/1999/xlink">
    <!-- Generator: Sketch 41 (35326) - http://www.bohemiancoding.com/sketch -->
    <title>Shape</title>
    <desc>Created with Sketch.</desc>
    <defs></defs>
    <g id="News-Releases" stroke="none" stroke-width="1" fill="none" fill-rule="evenodd">
        <g id="NEWS-RELEASES-v5" transform="translate(-1166.000000, -1201.000000)" fill="#D1DDE6">
            <g id="content" transform="translate(557.000000, 963.000000)">
                <g id="Group-10-Copy">
                    <g transform="translate(33.000000, 228.000000)">
                        <path d="M588.5,21.7333333 C587.866667,21.7333333 587.3,21.9833333 586.866667,22.375 L580.925,18.9166667 C580.966667,18.725 581,18.5333333 581,18.3333333 C581,18.1333333 580.966667,17.9416667 580.925,17.75 L586.8,14.325 C587.25,14.7416667 587.841667,15 588.5,15 C589.883333,15 591,13.8833333 591,12.5 C591,11.1166667 589.883333,10 588.5,10 C587.116667,10 586,11.1166667 586,12.5 C586,12.7 586.033333,12.8916667 586.075,13.0833333 L580.2,16.5083333 C579.75,16.0916667 579.158333,15.8333333 578.5,15.8333333 C577.116667,15.8333333 576,16.95 576,18.3333333 C576,19.7166667 577.116667,20.8333333 578.5,20.8333333 C579.158333,20.8333333 579.75,20.575 580.2,20.1583333 L586.133333,23.625 C586.091667,23.8 586.066667,23.9833333 586.066667,24.1666667 C586.066667,25.5083333 587.158333,26.6 588.5,26.6 C589.841667,26.6 590.933333,25.5083333 590.933333,24.1666667 C590.933333,22.825 589.841667,21.7333333 588.5,21.7333333 L588.5,21.7333333 Z" id="Shape"></path>
                    </g>
                </g>
            </g>
        </g>
    </g>
</svg>