<?xml version="1.0" encoding="UTF-8"?>
<svg width="15px" height="14px" viewBox="0 0 15 14" version="1.1" xmlns="http://www.w3.org/2000/svg" xmlns:xlink="http://www.w3.org/1999/xlink">
    <!-- Generator: sketchtool 41 (35326) - http://www.bohemiancoding.com/sketch -->
    <title>11FD457C-23F9-4147-A9E4-653F601047A5</title>
    <desc>Created with sketchtool.</desc>
    <defs></defs>
    <g id="Page-1" stroke="none" stroke-width="1" fill="none" fill-rule="evenodd">
        <g id="NEWS-RELEASES_expand-share-button" transform="translate(-1125.000000, -333.000000)" fill="#10416C">
            <g id="Group-3" transform="translate(1064.000000, 329.000000)">
                <path d="M73.6787778,15.9298148 L71.6044444,15.9298148 L71.6044444,12.6807778 C71.6044444,11.9058519 71.5894074,10.9092593 70.5254074,10.9092593 C69.4448148,10.9092593 69.2799259,11.7531481 69.2799259,12.625037 L69.2799259,15.9298148 L67.204037,15.9298148 L67.204037,9.2487037 L69.1959259,9.2487037 L69.1959259,10.1615556 L69.2244444,10.1615556 C69.5018519,9.6362963 70.1792963,9.08225926 71.1893704,9.08225926 C73.2906667,9.08225926 73.6787778,10.4656667 73.6787778,12.2651852 L73.6787778,15.9298148 Z M64.8629259,8.33533333 C64.1976667,8.33533333 63.6597037,7.79581481 63.6597037,7.13107407 C63.6597037,6.46711111 64.1976667,5.92733333 64.8629259,5.92733333 C65.5271481,5.92733333 66.0666667,6.46711111 66.0666667,7.13107407 C66.0666667,7.79581481 65.5271481,8.33533333 64.8629259,8.33533333 Z M63.8243333,15.9295556 L65.9017778,15.9295556 L65.9017778,9.2487037 L63.8243333,9.2487037 L63.8243333,15.9295556 Z M74.712963,4 L62.7828889,4 C62.2122593,4 61.748963,4.45214815 61.748963,5.00877778 L61.748963,16.9899259 C61.748963,17.5473333 62.2122593,18 62.7828889,18 L74.712963,18 C75.2838519,18 75.75,17.5473333 75.75,16.9899259 L75.75,5.00877778 C75.75,4.45214815 75.2838519,4 74.712963,4 L74.712963,4 Z" id="Fill-8"></path>
            </g>
        </g>
    </g>
</svg>