<?xml version="1.0" encoding="UTF-8"?>
<svg width="16px" height="13px" viewBox="0 0 16 13" version="1.1" xmlns="http://www.w3.org/2000/svg" xmlns:xlink="http://www.w3.org/1999/xlink">
    <!-- Generator: sketchtool 41 (35326) - http://www.bohemiancoding.com/sketch -->
    <title>82F1D494-10B9-47D1-B50A-16CD4901C311</title>
    <desc>Created with sketchtool.</desc>
    <defs></defs>
    <g id="News-Releases" stroke="none" stroke-width="1" fill="none" fill-rule="evenodd">
        <g id="NEWS-RELEASES_expand-share-button" transform="translate(-765.000000, -633.000000)" fill="#4A90E2">
            <g id="Group-3" transform="translate(729.000000, 628.000000)">
                <path d="M51.1691657,5.24074074 C50.5502371,5.61601307 49.8663335,5.88924132 49.1353646,6.0358516 C48.5530886,5.39818019 47.7209086,5 46.7995963,5 C45.0336089,5 43.6004101,6.46943483 43.6004101,8.28165449 C43.6004101,8.53905549 43.6278995,8.78895937 43.6828784,9.02928361 C41.0230681,8.89225298 38.6652249,7.5869217 37.0858324,5.59935281 C36.8101051,6.08583237 36.6526656,6.64978214 36.6526656,7.25080097 C36.6526656,8.38869666 37.2174484,9.39372677 38.0767013,9.98225042 C37.5527361,9.96642317 37.0583429,9.81689735 36.6260092,9.57282455 L36.6260092,9.61322568 C36.6260092,11.2038639 37.7293349,12.530437 39.1946046,12.8311547 C38.9263745,12.9077919 38.6431501,12.946527 38.351179,12.946527 C38.1450083,12.946527 37.9438357,12.9269512 37.7489107,12.8882161 C38.156254,14.1914648 39.3374664,15.1406831 40.7381776,15.16609 C39.6431821,16.0470012 38.2624632,16.5717993 36.7634564,16.5717993 C36.5052224,16.5717993 36.2499039,16.5568051 36,16.5268166 C37.416122,17.4564591 39.0992247,18 40.9060297,18 C46.7933487,18 50.0116942,12.9998398 50.0116942,8.66317442 C50.0116942,8.5203127 50.0091952,8.37745098 50.0037806,8.23750481 C50.6289568,7.77476612 51.1720813,7.19707164 51.5994169,6.53899141 C51.026304,6.80014097 50.4090414,6.97673972 49.7617903,7.05545944 C50.4227861,6.64978214 50.930091,6.00669614 51.1691657,5.24074074" id="Twitter"></path>
            </g>
        </g>
    </g>
</svg>