<?xml version="1.0" encoding="UTF-8"?>
<svg width="14px" height="14px" viewBox="0 0 14 14" version="1.1" xmlns="http://www.w3.org/2000/svg" xmlns:xlink="http://www.w3.org/1999/xlink">
    <!-- Generator: sketchtool 41 (35326) - http://www.bohemiancoding.com/sketch -->
    <title>E0FCF1BB-0EB3-42EA-B37D-A74C12FA5A13</title>
    <desc>Created with sketchtool.</desc>
    <defs></defs>
    <g id="Page-1" stroke="none" stroke-width="1" fill="none" fill-rule="evenodd">
        <g id="NEWS-RELEASES_expand-share-button" transform="translate(-1076.000000, -333.000000)" fill="#10416C">
            <g id="Group-3" transform="translate(1064.000000, 329.000000)">
                <path d="M19,18 L12,18 L12,4 L26,4 L26,18 L21.3333333,18 L21.3333333,13.3333332 L23.6666666,13.3333332 L23.6666666,10.9999998 L21.3333333,10.9999998 L21.3333333,9.28125 C21.3333333,8.08333338 23.6666666,8.66666679 23.6666666,8.66666679 L23.6666666,6.33333335 C21.3333333,6.33333335 20.708336,6.38280981 20.1666666,6.91666665 C19.6249973,7.45052348 19,8.31249516 19,9.28125 L19,10.9999998 L16.6666666,10.9999998 L16.6666666,13.3333332 L19,13.3333332 C19,13.3333332 18.8691945,16.1517363 19,18 Z" id="icon-12x12"></path>
            </g>
        </g>
    </g>
</svg>