<?xml version="1.0" encoding="UTF-8"?>
<svg width="17px" height="14px" viewBox="0 0 17 14" version="1.1" xmlns="http://www.w3.org/2000/svg" xmlns:xlink="http://www.w3.org/1999/xlink">
    <!-- Generator: sketchtool 41 (35326) - http://www.bohemiancoding.com/sketch -->
    <title>D2FCFF65-B5E8-4418-884B-568C93F39715</title>
    <desc>Created with sketchtool.</desc>
    <defs></defs>
    <g id="Page-1" stroke="none" stroke-width="1" fill="none" fill-rule="evenodd">
        <g id="NEWS-RELEASES_expand-share-button" transform="translate(-1150.000000, -333.000000)" fill="#10416C">
            <g id="Group-3" transform="translate(1064.000000, 329.000000)">
                <g id="Group-19" transform="translate(86.000000, 4.000000)">
                    <path d="M11.5650763,4.63858407 C10.0248092,4.7169469 8.68543257,5.17163717 7.59802799,6.19890265 C6.49936387,7.23676106 5.99783715,8.50853097 6.13492366,10.0850796 C5.53288804,10.0124779 4.98454198,9.93256637 4.43307888,9.88734513 C4.24262087,9.87173451 4.01660305,9.8939115 3.8552799,9.98255752 C3.31978372,10.2768053 2.80642494,10.6090265 2.19796438,10.9794071 C2.3096056,10.4876726 2.38187023,10.0570796 2.50979644,9.64290265 C2.60388041,9.33849558 2.56030534,9.1690708 2.27232824,8.97084071 C0.423346056,7.69962832 -0.356043257,5.79717699 0.227226463,3.83853982 C0.766857506,2.02659292 2.09204835,0.927716814 3.89268448,0.354893805 C6.35038168,-0.426876106 9.11240458,0.370566372 10.6068702,2.27072566 C11.1466285,2.95709735 11.4776081,3.72746903 11.5650763,4.63858407 L11.5650763,4.63858407 Z M4.47620865,4.02828319 C4.4903944,3.67004425 4.1716285,3.34730088 3.79300254,3.33652212 C3.40534351,3.32543363 3.08651399,3.61392035 3.07519084,3.9859115 C3.06374046,4.36292035 3.35986005,4.6650354 3.75031807,4.67469912 C4.13740458,4.68423894 4.46189567,4.39538053 4.47620865,4.02828319 L4.47620865,4.02828319 Z M8.17474555,3.33627434 C7.7947201,3.3430885 7.47360051,3.65827434 7.48034351,4.01793805 C7.48727735,4.39073451 7.80229008,4.68238053 8.19306616,4.67779646 C8.58486005,4.67321239 8.88199746,4.37846903 8.87830789,3.99780531 C8.87506361,3.62414159 8.56145038,3.32939823 8.17474555,3.33627434 L8.17474555,3.33627434 Z" id="Shape"></path>
                    <path d="M15.0255089,13.989469 C14.5377863,13.7779823 14.0903944,13.4606903 13.6140585,13.4122478 C13.1395674,13.3639912 12.6407761,13.6305487 12.1443384,13.6799823 C10.6321883,13.8306372 9.27748092,13.4202389 8.16043257,12.4142832 C6.03594148,10.5007434 6.33950382,7.56669027 8.79745547,5.99856637 C10.9819975,4.60488496 14.1857506,5.06948673 15.7259542,7.00328319 C17.0700382,8.69071681 16.9120865,10.9307168 15.2712468,12.3483097 C14.7964377,12.7585841 14.6255725,13.0961947 14.9302163,13.6370531 C14.9864504,13.7369115 14.9928753,13.8633451 15.0255089,13.989469 L15.0255089,13.989469 Z M9.47372774,8.7550177 C9.78422392,8.75532743 10.0398855,8.51869027 10.0516539,8.22004425 C10.0640585,7.90386726 9.80292621,7.63867257 9.47779898,7.63737168 C9.15591603,7.6359469 8.88625954,7.90485841 8.89745547,8.21632743 C8.90801527,8.51392035 9.16545802,8.75464602 9.47372774,8.7550177 L9.47372774,8.7550177 Z M13.0526718,7.63861062 C12.7513995,7.63656637 12.4954198,7.87673451 12.4831425,8.17315044 C12.4701018,8.49013274 12.7230916,8.75043363 13.045229,8.75123894 C13.3568066,8.75223009 13.6029898,8.52277876 13.614313,8.22084956 C13.6263995,7.90312389 13.3732824,7.64077876 13.0526718,7.63861062 L13.0526718,7.63861062 Z" id="Shape"></path>
                </g>
            </g>
        </g>
    </g>
</svg>