<?xml version="1.0" encoding="UTF-8"?>
<svg width="12px" height="10px" viewBox="0 0 12 10" version="1.1" xmlns="http://www.w3.org/2000/svg" xmlns:xlink="http://www.w3.org/1999/xlink">
    <!-- Generator: sketchtool 41 (35326) - http://www.bohemiancoding.com/sketch -->
    <title>A20335AB-33E2-41BE-85F0-8CA17822916C</title>
    <desc>Created with sketchtool.</desc>
    <defs></defs>
    <g id="News" stroke="none" stroke-width="1" fill="none" fill-rule="evenodd">
        <g id="NEWS-RELEASES---Tab" transform="translate(-653.000000, -2540.000000)" fill="#48A7D7">
            <g id="Group-13" transform="translate(54.000000, 2471.000000)">
                <g id="tweet-1" transform="translate(30.000000, 49.000000)">
                    <g id="Group-18" transform="translate(320.000000, 15.000000)">
                        <path d="M260.668589,5.18518519 C260.19249,5.47385621 259.66641,5.68403178 259.104127,5.79680892 C258.656222,5.30629245 258.016084,5 257.307382,5 C255.94893,5 254.846469,6.13033449 254.846469,7.52434961 C254.846469,7.72235038 254.867615,7.91458413 254.909906,8.09944893 C252.863899,7.99404075 251.050173,6.98993977 249.835256,5.46104063 C249.623158,5.83525567 249.50205,6.26906318 249.50205,6.73138536 C249.50205,7.60668973 249.936499,8.37978982 250.597463,8.83250032 C250.194412,8.82032552 249.81411,8.70530565 249.481546,8.51755735 L249.481546,8.54863514 C249.481546,9.772203 250.330258,10.7926439 251.457388,11.0239651 C251.251057,11.0829168 251.033192,11.1127131 250.808599,11.1127131 C250.650006,11.1127131 250.495258,11.0976547 250.345316,11.0678585 C250.658657,12.0703576 251.567282,12.8005254 252.644752,12.8200692 C251.802448,13.4976932 250.740356,13.9013841 249.587274,13.9013841 C249.388633,13.9013841 249.192234,13.8898501 249,13.866782 C250.089325,14.5818916 251.384019,15 252.773869,15 C257.302576,15 259.778226,11.1537229 259.778226,7.81782648 C259.778226,7.70793285 259.776304,7.59803922 259.772139,7.49038831 C260.253044,7.13443547 260.670832,6.69005511 260.999551,6.18383955 C260.558695,6.38472382 260.083878,6.52056901 259.585993,6.58112265 C260.094451,6.26906318 260.484685,5.77438165 260.668589,5.18518519" id="Twitter"></path>
                    </g>
                </g>
            </g>
        </g>
    </g>
</svg>