<?xml version="1.0" encoding="UTF-8"?>
<svg width="53px" height="53px" viewBox="0 0 53 53" version="1.1" xmlns="http://www.w3.org/2000/svg" xmlns:xlink="http://www.w3.org/1999/xlink">
    <!-- Generator: sketchtool 41 (35326) - http://www.bohemiancoding.com/sketch -->
    <title>6A90BED6-6ABD-4B6D-BCDF-055F2C796CCA</title>
    <desc>Created with sketchtool.</desc>
    <defs></defs>
    <g id="Contacts" stroke="none" stroke-width="1" fill="none" fill-rule="evenodd">
        <g id="Contacts---landing" transform="translate(-915.000000, -339.000000)">
            <g id="content" transform="translate(220.000000, 285.000000)">
                <g id="Group-3" transform="translate(30.000000, 30.000000)">
                    <g id="1-copy-2" transform="translate(640.000000, 0.000000)">
                        <g id="Group-10" transform="translate(25.000000, 24.000000)">
                            <circle id="Oval" fill="#507494" cx="26.5" cy="26.5" r="26.5"></circle>
                            <path d="M39.9669642,17.3626649 C39.7026709,17.6245422 39.5824026,18.0008027 39.644764,18.369538 L40.0441735,20.7309487 C40.1688961,21.4669142 39.5913114,22.0644158 38.9380022,22.0644158 C38.7657661,22.0644158 38.5875909,22.0222746 38.4153548,21.9304671 L36.3232806,20.815231 C36.1599533,20.7279386 35.9802933,20.6842924 35.8006332,20.6842924 C35.6209732,20.6842924 35.442798,20.7279386 35.2779859,20.815231 L33.1859116,21.9304671 C33.0136756,22.0222746 32.8355003,22.0644158 32.6632643,22.0644158 C32.009955,22.0644158 31.4338551,21.4669142 31.557093,20.7309487 L31.9579873,18.369538 C32.0203486,18.0008027 31.8985955,17.6245422 31.6343023,17.3626649 L29.9416375,15.6905634 C29.2749652,15.031355 29.643194,13.8845131 30.563766,13.7490593 L32.9038008,13.4044048 C33.2690601,13.3517283 33.5853211,13.1184468 33.7486484,12.7828225 L34.7939431,10.6336226 C35.0003295,10.2107059 35.4012237,10 35.8006332,10 C36.2015275,10 36.600937,10.2107059 36.8073233,10.6336226 L37.8541028,12.7828225 C38.0174301,13.1184468 38.3322064,13.3517283 38.6989504,13.4044048 L41.0375004,13.7490593 C41.9580725,13.8845131 42.3263013,15.031355 41.659629,15.6905634 L39.9669642,17.3626649 Z M23.8391356,27.8121708 C23.8168637,27.8121708 23.7975614,27.8091607 23.7752895,27.8091607 C23.7545024,27.8091607 23.7337153,27.8121708 23.7129282,27.8121708 C22.1048966,27.7775548 20.8057022,26.4455927 20.8057022,24.8081072 C20.8057022,23.148046 22.1375621,21.7980234 23.7752895,21.7980234 C25.4130169,21.7980234 26.7448768,23.148046 26.7448768,24.8081072 C26.7448768,26.4455927 25.4456823,27.7775548 23.8391356,27.8121708 L23.8391356,27.8121708 Z M28.2682751,28.7046606 C29.5006538,27.2477801 30.0945712,25.2204886 29.4546252,23.0276426 C28.8651621,21.0063713 27.1873453,19.4095219 25.1576324,18.945969 C21.2763818,18.0594993 17.8361149,21.0259369 17.8361149,24.8081072 C17.8361149,26.3026138 18.3929125,27.6511313 19.2823039,28.7046606 C15.4470819,30.2909748 12.6140956,33.9753173 12.014239,38.2947875 C11.8895164,39.1963076 12.6007325,40 13.4975479,40 C14.2325207,40 14.8531645,39.4536698 14.9556152,38.7161993 C15.568835,34.3410425 19.2570624,30.8538604 23.7129282,30.8222546 C23.7337153,30.8222546 23.7545024,30.8282747 23.7752895,30.8282747 C23.7975614,30.8282747 23.8168637,30.8222546 23.8391356,30.8222546 C28.2935166,30.8538604 31.9832288,34.3410425 32.5949637,38.7177043 C32.6988993,39.4536698 33.319543,40 34.0530311,40 L34.0545159,40 C34.9513313,40 35.6610626,39.1963076 35.53634,38.2962926 C34.9379681,33.9753173 32.103497,30.2939848 28.2682751,28.7046606 L28.2682751,28.7046606 Z" id="profile_favorite-[#1334]" fill="#FFFFFF"></path>
                        </g>
                    </g>
                </g>
            </g>
        </g>
    </g>
</svg>