<?xml version="1.0" encoding="UTF-8"?>
<svg width="53px" height="53px" viewBox="0 0 53 53" version="1.1" xmlns="http://www.w3.org/2000/svg" xmlns:xlink="http://www.w3.org/1999/xlink">
    <!-- Generator: sketchtool 41 (35326) - http://www.bohemiancoding.com/sketch -->
    <title>860BF2B3-08C6-425D-8A9E-366BFD2A3A89</title>
    <desc>Created with sketchtool.</desc>
    <defs></defs>
    <g id="Contacts" stroke="none" stroke-width="1" fill="none" fill-rule="evenodd">
        <g id="Contacts---landing" transform="translate(-275.000000, -459.000000)">
            <g id="content" transform="translate(220.000000, 285.000000)">
                <g id="Group-3" transform="translate(30.000000, 30.000000)">
                    <g id="1-copy-3" transform="translate(0.000000, 120.000000)">
                        <g id="Group-10" transform="translate(25.000000, 24.000000)">
                            <g id="Group-11">
                                <circle id="Oval" fill="#507494" cx="26.5" cy="26.5" r="26.5"></circle>
                                <path d="M32.0000682,14.6196242 C34.8367155,15.6266501 37.0900335,18.1642217 38.0950266,21.0035677 L32.0000682,21.0035677 L32.0000682,14.6196242 Z M32.0000682,24.3380902 L42,24.3380902 C42,16.9704626 36.0300407,11 28.6667576,11 L28.6667576,21.0035677 C28.6667576,22.8442241 30.1584141,24.3380902 32.0000682,24.3380902 L32.0000682,24.3380902 Z M23.2934609,37.4761091 C19.4068207,36.7208398 16.2885086,33.6013939 15.5318471,29.7116734 C14.2668557,23.1910145 19.2884882,18.9111548 22.0001364,17.9524795 L22.0001364,24.3380902 C22.0001364,28.0144014 24.990116,31.0071354 28.6667576,31.0071354 L34.761716,31.0071354 C33.3383924,34.4600335 29.0684215,38.598176 23.2934609,37.4761091 L23.2934609,37.4761091 Z M25.333447,24.3380902 L25.333447,14.3345226 C17.0951698,14.3345226 10.6018807,21.8088549 12.2602028,30.3485672 C13.2701959,35.5487551 17.4601673,39.7385827 22.6584652,40.748943 C31.5817377,42.484562 38.6666894,34.9001905 38.6666894,27.6726128 L28.6667576,27.6726128 C26.8251035,27.6726128 25.333447,26.1787467 25.333447,24.3380902 L25.333447,24.3380902 Z" id="chart-[#1293]" fill="#FFFFFF"></path>
                            </g>
                        </g>
                    </g>
                </g>
            </g>
        </g>
    </g>
</svg>