<?xml version="1.0" encoding="UTF-8"?>
<svg width="53px" height="53px" viewBox="0 0 53 53" version="1.1" xmlns="http://www.w3.org/2000/svg" xmlns:xlink="http://www.w3.org/1999/xlink">
    <!-- Generator: sketchtool 41 (35326) - http://www.bohemiancoding.com/sketch -->
    <title>2DEACAAB-5F92-42E1-8D71-3D9F67BA278C</title>
    <desc>Created with sketchtool.</desc>
    <defs></defs>
    <g id="Contacts" stroke="none" stroke-width="1" fill="none" fill-rule="evenodd">
        <g id="Contacts---landing" transform="translate(-595.000000, -339.000000)">
            <g id="content" transform="translate(220.000000, 285.000000)">
                <g id="Group-3" transform="translate(30.000000, 30.000000)">
                    <g id="1-copy" transform="translate(320.000000, 0.000000)">
                        <g id="Group-10" transform="translate(25.000000, 24.000000)">
                            <circle id="Oval" fill="#507494" cx="26.5" cy="26.5" r="26.5"></circle>
                            <path d="M28.5,36.1555 L28.5,40 L33,40 L33,43 L21,43 L21,40 L25.5,40 L25.5,36.1555 C20.04,35.542 15,31 15,25 L18,25 C18,37 36,37 36,25 L39,25 C39,31 33.96,35.542 28.5,36.1555 L28.5,36.1555 Z M24,16 L30,16 L30,24.0895 C30,25.5835 28.9785,26.9695 27.504,27.2095 C25.6245,27.5155 24,26.0725 24,24.25 L24,16 Z M27.5895,30.2215 C30.7095,29.9245 33,27.1255 33,23.992 L33,13 L21,13 L21,24.25 C21,27.7585 24.0105,30.5635 27.5895,30.2215 L27.5895,30.2215 Z" id="microphone-[#933]" fill="#FFFFFF"></path>
                        </g>
                    </g>
                </g>
            </g>
        </g>
    </g>
</svg>