<?xml version="1.0" encoding="UTF-8"?>
<svg width="53px" height="53px" viewBox="0 0 53 53" version="1.1" xmlns="http://www.w3.org/2000/svg" xmlns:xlink="http://www.w3.org/1999/xlink">
    <!-- Generator: sketchtool 41 (35326) - http://www.bohemiancoding.com/sketch -->
    <title>FB5B5DBD-548F-4F5A-BF17-72ADDB2BA334</title>
    <desc>Created with sketchtool.</desc>
    <defs></defs>
    <g id="Contacts" stroke="none" stroke-width="1" fill="none" fill-rule="evenodd">
        <g id="Contacts---landing" transform="translate(-275.000000, -339.000000)">
            <g id="content" transform="translate(220.000000, 285.000000)">
                <g id="Group-3" transform="translate(30.000000, 30.000000)">
                    <g id="1">
                        <g id="Group-10" transform="translate(25.000000, 24.000000)">
                            <circle id="Oval" fill="#507494" cx="26.5" cy="26.5" r="26.5"></circle>
                            <path d="M36.3092214,26.9100764 C36.3092214,28.5675849 34.9667146,29.9100918 33.3092061,29.9100918 C31.6516976,29.9100918 30.3091907,28.5675849 30.3091907,26.9100764 C30.3091907,25.2525679 31.6516976,23.910061 33.3092061,23.910061 C34.9667146,23.910061 36.3092214,25.2525679 36.3092214,26.9100764 M28.809183,26.9100764 C28.809183,28.5675849 27.4666761,29.9100918 25.8091676,29.9100918 C24.1516591,29.9100918 22.8091523,28.5675849 22.8091523,26.9100764 C22.8091523,25.2525679 24.1516591,23.910061 25.8091676,23.910061 C27.4666761,23.910061 28.809183,25.2525679 28.809183,26.9100764 M21.3091446,26.9100764 C21.3091446,28.5675849 19.9666377,29.9100918 18.3091292,29.9100918 C16.6516207,29.9100918 15.3091138,28.5675849 15.3091138,26.9100764 C15.3091138,25.2525679 16.6516207,23.910061 18.3091292,23.910061 C19.9666377,23.910061 21.3091446,25.2525679 21.3091446,26.9100764 M37.1627258,39.0001383 C37.1627258,39.0001383 33.2387057,37.8856326 30.5281918,37.8856326 C28.3171805,37.8856326 27.8131779,38.2771346 25.9366683,38.2771346 C19.8166369,38.2771346 14.8726116,33.7621115 14.1136077,28.2765834 C13.1056026,20.9955461 18.9031323,14.9985154 25.9366683,15.0000154 C31.8511986,15.0000154 36.5042224,19.0545361 37.599228,24.1245621 C38.0012301,25.9770716 37.9607299,27.816081 37.4822274,29.5890901 C36.9122245,31.6966009 36.9377247,34.0666131 37.5557278,36.4411252 C37.8722294,37.6546314 38.4542324,39.0001383 37.1627258,39.0001383 M40.8767448,37.2886296 C40.8767448,37.2886296 40.4612427,35.6911214 40.4597427,35.6851214 C40.0052404,33.9451124 39.9077399,32.107603 40.3772423,30.3720941 C40.9562452,28.2330832 41.0537457,25.9020712 40.5317431,23.4900589 C39.151736,17.1075262 33.292706,12 25.9366683,12 C16.9996225,11.9985 9.89708611,19.6905394 11.1420925,28.6875855 C12.1050974,35.6491212 18.3061292,41.27715 25.9366683,41.27715 C28.1401796,41.27715 28.5841819,40.885648 30.5296918,40.885648 C32.8757038,40.885648 36.1937208,41.8786531 36.1937208,41.8786531 C39.0257354,42.5881567 41.5997485,40.0651438 40.8767448,37.2886296" id="message_three_points-[#1560]" fill="#FFFFFF"></path>
                        </g>
                    </g>
                </g>
            </g>
        </g>
    </g>
</svg>