<?xml version="1.0" encoding="UTF-8"?>
<svg width="53px" height="53px" viewBox="0 0 53 53" version="1.1" xmlns="http://www.w3.org/2000/svg" xmlns:xlink="http://www.w3.org/1999/xlink">
    <!-- Generator: sketchtool 41 (35326) - http://www.bohemiancoding.com/sketch -->
    <title>E8B47E89-1460-486C-AD01-E1AD57DD4854</title>
    <desc>Created with sketchtool.</desc>
    <defs></defs>
    <g id="Contacts" stroke="none" stroke-width="1" fill="none" fill-rule="evenodd">
        <g id="Contacts---landing" transform="translate(-915.000000, -459.000000)">
            <g id="content" transform="translate(220.000000, 285.000000)">
                <g id="Group-3" transform="translate(30.000000, 30.000000)">
                    <g id="Group-2" transform="translate(640.000000, 120.000000)">
                        <g id="Group-15" transform="translate(25.000000, 24.000000)">
                            <circle id="Oval" fill="#507494" cx="26.5" cy="26.5" r="26.5"></circle>
                            <path d="M15,23.25 C15,18.7005 18.7005,15 23.25,15 C26.451,15 29.226,16.8375 30.594,19.509 C29.793,19.5195 29.0115,19.6155 28.26,19.7865 C24.048,20.739 20.739,24.048 19.7865,28.26 C20.61,28.8315 21.588,29.181 22.638,29.2875 C23.2455,25.911 25.911,23.2455 29.2875,22.638 C29.763,22.5525 30.2505,22.5 30.75,22.5 C30.993,22.5 31.2285,22.53 31.4655,22.554 C31.4835,22.7835 31.5,23.0145 31.5,23.25 C31.5,27.7995 27.7995,31.5 23.25,31.5 C18.7005,31.5 15,27.7995 15,23.25 M36.5685,21.135 C36.6765,21.825 36.75,22.5285 36.75,23.25 C36.75,23.835 36.7005,24.4065 36.6285,24.9705 C38.0925,26.4615 39,28.5 39,30.75 C39,35.2995 35.2995,39 30.75,39 C28.5,39 26.4615,38.0925 24.9705,36.6285 C24.342,36.0105 23.826,35.283 23.4195,34.491 C29.5545,34.3995 34.5,29.406 34.5,23.25 C34.5,17.037 29.463,12 23.25,12 C17.037,12 12,17.037 12,23.25 C12,28.3365 15.378,32.631 20.0115,34.0215 C20.2845,34.9215 20.6565,35.7795 21.135,36.5685 C23.1075,39.8205 26.6685,42 30.75,42 C36.963,42 42,36.963 42,30.75 C42,26.6685 39.8205,23.1075 36.5685,21.135" id="rings-[#909]" fill="#FFFFFF"></path>
                        </g>
                    </g>
                </g>
            </g>
        </g>
    </g>
</svg>