<?xml version="1.0" encoding="UTF-8"?>
<svg width="53px" height="53px" viewBox="0 0 53 53" version="1.1" xmlns="http://www.w3.org/2000/svg" xmlns:xlink="http://www.w3.org/1999/xlink">
    <!-- Generator: sketchtool 41 (35326) - http://www.bohemiancoding.com/sketch -->
    <title>B4514E6A-C354-4E9F-B3A5-52A6621C4329</title>
    <desc>Created with sketchtool.</desc>
    <defs></defs>
    <g id="Contacts" stroke="none" stroke-width="1" fill="none" fill-rule="evenodd">
        <g id="Contacts---landing" transform="translate(-595.000000, -459.000000)">
            <g id="content" transform="translate(220.000000, 285.000000)">
                <g id="Group-3" transform="translate(30.000000, 30.000000)">
                    <g id="1-copy-4" transform="translate(320.000000, 120.000000)">
                        <g id="Group-10" transform="translate(25.000000, 24.000000)">
                            <circle id="Oval" fill="#507494" cx="26.5" cy="26.5" r="26.5"></circle>
                            <path d="M31.5,25.5 C31.5,26.328 30.828,27 30,27 L24,27 C23.172,27 22.5,26.328 22.5,25.5 C22.5,24.672 23.172,24 24,24 L30,24 C30.828,24 31.5,24.672 31.5,25.5 L31.5,25.5 Z M24,18 L30,18 C30.828,18 31.5,18.672 31.5,19.5 C31.5,20.328 30.828,21 30,21 L24,21 C23.172,21 22.5,20.328 22.5,19.5 C22.5,18.672 23.172,18 24,18 L24,18 Z M36,18 L36,15 C37.6545,15 39,16.3455 39,18 L36,18 Z M33,36 C33,37.6545 31.6545,39 30,39 L30,36 C30,34.3425 28.6575,33 27,33 L21,33 L21,18 C21,16.3425 22.3425,15 24,15 L33,15 L33,36 Z M27,39 L18,39 C16.3455,39 15,37.6545 15,36 L25.5,36 C26.328,36 27,36.672 27,37.5 L27,39 Z M36,12 L24,12 C20.6865,12 18,14.6865 18,18 L18,33 L13.5,33 C12.672,33 12,33.672 12,34.5 L12,36 C12,39.3135 14.6865,42 18,42 L30,42 C33.3135,42 36,39.3135 36,36 L36,21 L40.5,21 C41.328,21 42,20.328 42,19.5 L42,18 C42,14.6865 39.3135,12 36,12 L36,12 Z" id="script-[#1604]" fill="#FFFFFF"></path>
                        </g>
                    </g>
                </g>
            </g>
        </g>
    </g>
</svg>