<?xml version="1.0" encoding="UTF-8" standalone="no"?>
<svg width="22px" height="19px" viewBox="0 0 22 19" version="1.1" xmlns="http://www.w3.org/2000/svg" xmlns:xlink="http://www.w3.org/1999/xlink">
    <!-- Generator: sketchtool 39.1 (31720) - http://www.bohemiancoding.com/sketch -->
    <title>2E63CEEB-0E6F-4E20-92BF-193B6EADDC09</title>
    <desc>Created with sketchtool.</desc>
    <defs></defs>
    <g id="Symbols" stroke="none" stroke-width="1" fill="none" fill-rule="evenodd">
        <g id="FOOTER" transform="translate(-985.000000, -61.000000)" fill="#FFFFFF">
            <g id="Group-20">
                <g transform="translate(933.000000, 60.000000)">
                    <g id="Group-18" transform="translate(0.000000, 1.000000)">
                        <path d="M73.2987576,0.802750693 C72.4610817,1.31065512 71.5354668,1.68045014 70.5461524,1.87887673 C69.7580831,1.0158338 68.6317867,0.476925208 67.384856,0.476925208 C64.9947175,0.476925208 63.0549848,2.46570083 63.0549848,4.91841136 C63.0549848,5.26678532 63.0921898,5.60501247 63.1665997,5.93027424 C59.5667355,5.74481302 56.3755623,3.97813989 54.2379668,1.28810665 C53.8647895,1.94652216 53.6517064,2.70978809 53.6517064,3.52322438 C53.6517064,5.06328532 54.4160997,6.42352216 55.5790374,7.22004709 C54.8698878,7.19862604 54.2007618,6.99625346 53.6156288,6.66591828 L53.6156288,6.72059834 C53.6156288,8.87341413 55.1089017,10.6688366 57.0920402,11.0758366 C56.7290097,11.1795596 56.3456856,11.2319848 55.9505235,11.2319848 C55.6714861,11.2319848 55.3992133,11.2054903 55.1353961,11.1530651 C55.6867064,12.9169197 57.2853934,14.2016191 59.1811565,14.2360055 C57.6991579,15.4282562 55.8304529,16.1385332 53.8016537,16.1385332 C53.4521524,16.1385332 53.106597,16.1182396 52.7683698,16.0776524 C54.6849903,17.3358573 56.9629501,18.0715014 59.4083324,18.0715014 C67.3764003,18.0715014 71.7322022,11.3041399 71.7322022,5.43477147 C71.7322022,5.24141828 71.7288199,5.0480651 71.7214917,4.85865789 C72.5676233,4.23237396 73.3027036,3.45050554 73.881072,2.55984072 C73.1054044,2.91328809 72.2699834,3.15230194 71.3939751,3.25884349 C72.2885859,2.70978809 72.975187,1.8394169 73.2987576,0.802750693" id="Twitter"></path>
                    </g>
                </g>
            </g>
        </g>
    </g>
</svg>