<?xml version="1.0" encoding="UTF-8" standalone="no"?>
<svg width="25px" height="21px" viewBox="0 0 25 21" version="1.1" xmlns="http://www.w3.org/2000/svg" xmlns:xlink="http://www.w3.org/1999/xlink">
    <!-- Generator: sketchtool 39.1 (31720) - http://www.bohemiancoding.com/sketch -->
    <title>B28D72F9-09E7-4DCE-8A52-21D5216F5D22</title>
    <desc>Created with sketchtool.</desc>
    <defs></defs>
    <g id="Symbols" stroke="none" stroke-width="1" fill="none" fill-rule="evenodd">
        <g id="FOOTER" transform="translate(-1101.000000, -60.000000)" fill="#FFFFFF">
            <g id="Group-20">
                <g transform="translate(933.000000, 60.000000)">
                    <g id="Group-19" transform="translate(168.000000, 0.000000)">
                        <path d="M17.3476145,6.95787611 C15.0372137,7.07542035 13.0281489,7.75745575 11.397042,9.29835398 C9.7490458,10.8551416 8.99675573,12.7627965 9.2023855,15.1276195 C8.29933206,15.0187168 7.47681298,14.8988496 6.64961832,14.8310177 C6.3639313,14.8076018 6.02490458,14.8408673 5.78291985,14.9738363 C4.97967557,15.415208 4.2096374,15.9135398 3.29694656,16.4691106 C3.4644084,15.7315088 3.57280534,15.0856195 3.76469466,14.464354 C3.90582061,14.0077434 3.84045802,13.7536062 3.40849237,13.4562611 C0.635019084,11.5494425 -0.534064885,8.69576549 0.340839695,5.75780973 C1.15028626,3.03988938 3.13807252,1.39157522 5.83902672,0.532340708 C9.52557252,-0.640314159 13.6686069,0.555849558 15.9103053,3.4060885 C16.7199427,4.43564602 17.2164122,5.59120354 17.3476145,6.95787611 L17.3476145,6.95787611 Z M6.71431298,6.04242478 C6.7355916,5.50506637 6.25744275,5.02095133 5.68950382,5.00478319 C5.10801527,4.98815044 4.62977099,5.42088053 4.61278626,5.97886726 C4.59561069,6.54438053 5.03979008,6.9975531 5.6254771,7.01204867 C6.20610687,7.02635841 6.69284351,6.5930708 6.71431298,6.04242478 L6.71431298,6.04242478 Z M12.2621183,5.0044115 C11.6920802,5.01463274 11.2104008,5.4874115 11.2205153,6.02690708 C11.230916,6.58610177 11.7034351,7.0235708 12.2895992,7.01669469 C12.8772901,7.00981858 13.3229962,6.56770354 13.3174618,5.99670796 C13.3125954,5.43621239 12.8421756,4.99409735 12.2621183,5.0044115 L12.2621183,5.0044115 Z" id="Shape"></path>
                        <path d="M22.5382634,20.9842035 C21.8066794,20.6669735 21.1355916,20.1910354 20.4210878,20.1183717 C19.7093511,20.0459867 18.9611641,20.445823 18.2165076,20.5199735 C15.9482824,20.7459558 13.9162214,20.1303584 12.2406489,18.6214248 C9.05391221,15.751115 9.50925573,11.3500354 13.1961832,8.99784956 C16.4729962,6.90732743 21.278626,7.60423009 23.5889313,10.5049248 C25.6050573,13.0360752 25.3681298,16.3960752 22.9068702,18.5224646 C22.1946565,19.1378761 21.9383588,19.644292 22.3953244,20.4555796 C22.4796756,20.6053673 22.489313,20.7950177 22.5382634,20.9842035 L22.5382634,20.9842035 Z M14.2105916,13.1325265 C14.6763359,13.1329912 15.0598282,12.7780354 15.0774809,12.3300664 C15.0960878,11.8558009 14.7043893,11.4580088 14.2166985,11.4560575 C13.733874,11.4539204 13.3293893,11.8572876 13.3461832,12.3244912 C13.3620229,12.7708805 13.748187,13.131969 14.2105916,13.1325265 L14.2105916,13.1325265 Z M19.5790076,11.4579159 C19.1270992,11.4548496 18.7431298,11.8151018 18.7247137,12.2597257 C18.7051527,12.7351991 19.0846374,13.1256504 19.5678435,13.1268584 C20.0352099,13.1283451 20.4044847,12.7841681 20.4214695,12.3312743 C20.4395992,11.8546858 20.0599237,11.4611681 19.5790076,11.4579159 L19.5790076,11.4579159 Z" id="Shape"></path>
                    </g>
                </g>
            </g>
        </g>
    </g>
</svg>