<?xml version="1.0" encoding="UTF-8" standalone="no"?>
<svg width="25px" height="18px" viewBox="0 0 25 18" version="1.1" xmlns="http://www.w3.org/2000/svg" xmlns:xlink="http://www.w3.org/1999/xlink">
    <!-- Generator: sketchtool 39.1 (31720) - http://www.bohemiancoding.com/sketch -->
    <title>1D26C343-11B6-4576-8584-4B2B27941BA8</title>
    <desc>Created with sketchtool.</desc>
    <defs></defs>
    <g id="Symbols" stroke="none" stroke-width="1" fill="none" fill-rule="evenodd">
        <g id="FOOTER" transform="translate(-1041.000000, -63.000000)" fill="#FFFFFF">
            <g id="Group-20">
                <g transform="translate(933.000000, 60.000000)">
                    <path d="M131.97926,5.932408 C131.680618,4.63999234 130.618971,3.68750746 129.341544,3.54525689 C126.315821,3.20843697 123.253616,2.99831337 120.20442,3.0000102 C117.155224,2.99831337 114.092736,3.20843697 111.06673,3.54525689 C109.789303,3.68750746 108.728221,4.63999234 108.429863,5.932408 C108.005373,7.77233278 108,9.78052613 108,11.6753149 C108,13.569821 108,15.5780143 108.424772,17.4182219 C108.723413,18.7095063 109.784495,19.6631224 111.061922,19.8045246 C114.087645,20.1413445 117.14985,20.3514681 120.199329,20.3500541 C123.248525,20.3514681 126.311013,20.1416273 129.336453,19.8045246 C130.614163,19.6628396 131.675528,18.7095063 131.974169,17.4182219 C132.398658,15.5780143 132.401769,13.569821 132.401769,11.6753149 C132.401769,9.78080893 132.404032,7.77233278 131.97926,5.932408 M124.36136,12.2372471 L118.609121,15.347246 C118.03729,15.6566339 117.569249,15.377506 117.569249,14.7276218 L117.569249,8.62272532 C117.569249,7.97255823 118.037007,7.69343038 118.609121,8.00281829 L124.36136,11.1131 C124.933473,11.4219223 124.933473,11.928142 124.36136,12.2372471" id="Shape"></path>
                </g>
            </g>
        </g>
    </g>
</svg>