<?xml version="1.0" encoding="UTF-8"?>
<svg width="10px" height="10px" viewBox="0 0 10 10" version="1.1" xmlns="http://www.w3.org/2000/svg" xmlns:xlink="http://www.w3.org/1999/xlink">
    <!-- Generator: sketchtool 41 (35326) - http://www.bohemiancoding.com/sketch -->
    <title>4EDC104C-2EED-4F62-ACCF-1EF6B0AF6F97</title>
    <desc>Created with sketchtool.</desc>
    <defs></defs>
    <g id="Calendar" stroke="none" stroke-width="1" fill="none" fill-rule="evenodd">
        <g id="Calendar---filtering" transform="translate(-523.000000, -632.000000)" fill="#24803E">
            <g id="Group-22" transform="translate(220.000000, 227.000000)">
                <g id="Group-3">
                    <g id="legend" transform="translate(33.000000, 402.000000)">
                        <g id="Group-16" transform="translate(270.000000, 0.000000)">
                            <path d="M7.9985,7.977 C7.994,8.25 7.7725,8.5 7.499,8.5 L5.4475,8.5 C4.924,8.5 4.5,8.0135 4.5,7.4895 L4.5,5.438 C4.5,5.162 4.7235,4.938 4.9995,4.938 C5.276,4.938 5.5,5.162 5.5,5.438 L5.5,6.938 C5.5,7.2145 5.723,7.5 5.999,7.5 L7.499,7.5 C7.7725,7.5 7.994,7.705 7.9985,7.977 L7.9985,7.977 Z M7.9985,7.977 C7.9985,7.9745 8,7.972 8,7.969 L8,7.9845 C8,7.982 7.9985,7.9795 7.9985,7.977 L7.9985,7.977 Z M4.9995,4.938 L4.9995,4.938 L5,4.938 L4.9995,4.938 Z M9,11.5 C9,11.776 8.776,12 8.5,12 L1.5,12 C1.224,12 1,11.776 1,11.5 L1,4.5 C1,4.224 1.224,4 1.5,4 L8.5,4 C8.776,4 9,4.224 9,4.5 L9,11.5 Z M9,3 L1,3 C0.448,3 0,3.448 0,4 L0,12 C0,12.5525 0.448,13 1,13 L9,13 C9.5525,13 10,12.5525 10,12 L10,4 C10,3.448 9.5525,3 9,3 L9,3 Z" id="clock-[#1318]"></path>
                        </g>
                    </g>
                </g>
            </g>
        </g>
    </g>
</svg>