<?xml version="1.0" encoding="UTF-8"?>
<svg width="10px" height="10px" viewBox="0 0 10 10" version="1.1" xmlns="http://www.w3.org/2000/svg" xmlns:xlink="http://www.w3.org/1999/xlink">
    <!-- Generator: sketchtool 41 (35326) - http://www.bohemiancoding.com/sketch -->
    <title>38DFD0BD-5E6A-4289-BEC3-1D7B49DF9334</title>
    <desc>Created with sketchtool.</desc>
    <defs></defs>
    <g id="Calendar" stroke="none" stroke-width="1" fill="none" fill-rule="evenodd">
        <g id="Calendar---filtering" transform="translate(-256.000000, -632.000000)" fill="#899BAC">
            <g id="Group-22" transform="translate(220.000000, 227.000000)">
                <g id="Group-3">
                    <g id="legend" transform="translate(33.000000, 402.000000)">
                        <g id="Group-20" transform="translate(3.000000, 0.000000)">
                            <path d="M9,7.5 L7.059,7.5 L6.056,8.5075 C5.478,7.522 4.5005,5.855 4.3975,5.68 L3.6905,6.3875 L3.6945,6.39 L2.58,7.5 L1,7.5 L1,4 L9,4 L9,7.5 L9,7.5 Z M9,12 L1,12 L1,8.5 L2.995,8.5 L4.217,7.282 C5.5785,9.609 5.2185,8.9925 5.8655,10.1035 L7.472,8.5 L9,8.5 L9,12 L9,12 Z M0,13 L10,13 L10,3 L0,3 L0,13 L0,13 Z" id="stats-[#1190]"></path>
                        </g>
                    </g>
                </g>
            </g>
        </g>
    </g>
</svg>