<?xml version="1.0" encoding="UTF-8" standalone="no"?>
<svg width="16px" height="31px" viewBox="0 0 16 31" version="1.1" xmlns="http://www.w3.org/2000/svg" xmlns:xlink="http://www.w3.org/1999/xlink">
    <!-- Generator: Sketch 39.1 (31720) - http://www.bohemiancoding.com/sketch -->
    <title>icon</title>
    <desc>Created with Sketch.</desc>
    <defs></defs>
    <g id="Listing" stroke="none" stroke-width="1" fill="none" fill-rule="evenodd">
        <g id="Listing---Why-list-in-HK---FINAL" transform="translate(-631.000000, -2899.000000)" fill="#D5E2E8">
            <g id="2-columns" transform="translate(219.000000, 300.000000)">
                <g id="case-studies" transform="translate(2.000000, 2258.000000)">
                    <g id="BYD" transform="translate(356.000000, 91.000000)">
                        <g id="stats-copy" transform="translate(54.000000, 222.000000)">
                            <g id="icon" transform="translate(0.000000, 28.000000)">
                                <path d="M6,31 L10,31 L10,15 L6,15 L6,31 L6,31 Z M0,31 L4,31 L4,23 L0,23 L0,31 L0,31 Z M12,20 L12,31 L16,31 L16,20 L12,20 L12,20 Z" id="Shape"></path>
                                <polygon id="Shape" points="5 0 5 2 11.59 2 0 13.59 1.41 15 13 3.41 13 10 15 10 15 0"></polygon>
                            </g>
                        </g>
                    </g>
                </g>
            </g>
        </g>
    </g>
</svg>